<svg width="194" height="220" viewBox="0 0 194 220" fill="none" xmlns="http://www.w3.org/2000/svg">
<path d="M3.15689 122.295L64.2553 10.4142C67.7615 3.99386 74.4931 0 81.8084 0H83.9619C99.1039 0 108.754 16.1737 101.562 29.4989L68.2028 91.31C61.6781 103.4 70.4332 118.073 84.171 118.073H86.2774C99.1545 118.073 107.303 131.897 101.067 143.163C98.0892 148.542 92.4257 151.881 86.2774 151.881H20.71C5.52443 151.881 -4.12142 135.623 3.15689 122.295Z" fill="white"/>
<path d="M109.082 102.431H106.471C93.767 102.431 85.6032 88.9416 91.4962 77.6867C94.4133 72.1152 100.182 68.6239 106.471 68.6239H173.236C188.434 68.6239 198.079 84.9059 190.776 98.2343L129.75 209.61C126.24 216.017 119.516 220 112.211 220H109.728C94.5408 220 84.8951 203.739 92.1763 190.411L125.302 129.776C132.031 117.459 123.117 102.431 109.082 102.431Z" fill="white"/>
<path d="M3.15689 122.295L64.2553 10.4142C67.7615 3.99386 74.4931 0 81.8084 0H83.9619C99.1039 0 108.754 16.1737 101.562 29.4989L68.2028 91.31C61.6781 103.4 70.4332 118.073 84.171 118.073H86.2774C99.1545 118.073 107.303 131.897 101.067 143.163C98.0892 148.542 92.4257 151.881 86.2774 151.881H20.71C5.52443 151.881 -4.12142 135.623 3.15689 122.295Z" stroke="#00BBFF"/>
<path d="M109.082 102.431H106.471C93.767 102.431 85.6032 88.9416 91.4962 77.6867C94.4133 72.1152 100.182 68.6239 106.471 68.6239H173.236C188.434 68.6239 198.079 84.9059 190.776 98.2343L129.75 209.61C126.24 216.017 119.516 220 112.211 220H109.728C94.5408 220 84.8951 203.739 92.1763 190.411L125.302 129.776C132.031 117.459 123.117 102.431 109.082 102.431Z" stroke="#00BBFF"/>
</svg>
