<?xml version="1.0" encoding="UTF-8"?>
<svg version="1.1" xmlns="http://www.w3.org/2000/svg" width="521" height="599">
<path d="M0 0 C125.73 0 251.46 0 381 0 C381.0928125 60.1734375 381.0928125 60.1734375 381.1875 121.5625 C381.21481201 134.1960376 381.24212402 146.8295752 381.27026367 159.84594727 C381.28381348 175.3572998 381.28381348 175.3572998 381.28633118 182.63511658 C381.28910893 187.68248 381.3002823 192.7297473 381.31672668 197.77708435 C381.33750485 204.24155487 381.34343675 210.70588825 381.33921683 217.17038906 C381.34009753 219.52642744 381.34592628 221.88247128 381.35764539 224.23848069 C381.63986083 283.80569213 360.81175886 336.43919494 319 379 C306.32764633 391.71466537 290.93208781 401.84978132 275 410 C273.98172119 410.52352051 273.98172119 410.52352051 272.94287109 411.05761719 C259.46064585 417.90122626 245.55645319 422.8958345 230.8125 426.25 C230.14935791 426.40114258 229.48621582 426.55228516 228.80297852 426.70800781 C216.21641867 429.38580635 203.71553947 430.38093038 190.875 430.3125 C190.15866394 430.31067719 189.44232788 430.30885437 188.70428467 430.30697632 C137.96902538 430.09080894 92.32141004 408.81677803 56.25 373.5 C51.13585999 368.26744285 46.45468629 362.80199526 42 357 C40.83210938 355.48212891 40.83210938 355.48212891 39.640625 353.93359375 C15.02446526 321.11533946 -0.24799097 279.54432299 -0.12025452 238.3444519 C-0.12111053 237.32155563 -0.12196655 236.29865936 -0.12284851 235.24476624 C-0.12449378 231.83226742 -0.11899627 228.4198185 -0.11352539 225.00732422 C-0.11321884 222.51304183 -0.11335291 220.01875935 -0.11389065 217.52447701 C-0.1140931 211.53478849 -0.10982207 205.54511905 -0.10338932 199.55543531 C-0.09616611 192.62102136 -0.0953933 185.68661488 -0.09460449 178.75219727 C-0.0893623 160.4597958 -0.07540111 142.16739767 -0.0625 123.875 C-0.041875 82.99625 -0.02125 42.1175 0 0 Z " fill="#FDFDFD" transform="translate(72,62)"/>
<path d="M0 0 C3.48509931 1.54444076 6.14322337 3.62475353 9.0625 6.0625 C10.53009766 7.28066406 10.53009766 7.28066406 12.02734375 8.5234375 C13.00832031 9.34070313 13.98929688 10.15796875 15 11 C16.7068266 12.39767536 18.41515467 13.79351922 20.125 15.1875 C22.0838908 16.79099204 24.04231082 18.39504239 26 20 C26.63744141 20.52255371 27.27488281 21.04510742 27.93164062 21.58349609 C35.35293027 27.67110974 42.75975323 33.77038954 50.0625 40 C54.58180831 43.85374377 59.19181724 47.51171055 64 51 C67.91728886 49.3481312 70.8908047 46.69570021 74.0625 43.9375 C75.22723999 42.93807371 76.3926144 41.93938636 77.55859375 40.94140625 C78.13851074 40.44398926 78.71842773 39.94657227 79.31591797 39.43408203 C84.35770729 35.14074042 89.53356371 31.00488096 94.671875 26.828125 C99.1123813 23.20898402 103.52845778 19.56610172 107.89331055 15.85620117 C110.07305095 14.00356529 112.25842271 12.15766472 114.4453125 10.31347656 C115.93578427 9.05425261 117.42113713 7.78897723 118.90625 6.5234375 C120.22109375 5.42902344 120.22109375 5.42902344 121.5625 4.3125 C122.32691406 3.66925781 123.09132813 3.02601563 123.87890625 2.36328125 C126 1 126 1 130 1 C132.41015625 2.65234375 132.41015625 2.65234375 135.0625 4.9375 C136.04089844 5.76765625 137.01929688 6.5978125 138.02734375 7.453125 C139.00832031 8.29359375 139.98929687 9.1340625 141 10 C142.70428069 11.40077865 144.41259679 12.79666258 146.125 14.1875 C155.33573645 21.72355709 164.51295348 29.3005115 173.6953125 36.87109375 C174.45827637 37.49991455 175.22124023 38.12873535 176.00732422 38.77661133 C177.46493759 39.97796021 178.92230799 41.17960399 180.37939453 42.3815918 C183.89843529 45.28166071 187.42961855 48.163069 191 51 C194.48509931 49.45555924 197.14322337 47.37524647 200.0625 44.9375 C201.03316406 44.13183594 202.00382812 43.32617188 203.00390625 42.49609375 C203.99261719 41.67238281 204.98132813 40.84867187 206 40 C207.8317253 38.49803678 209.6650256 36.99799201 211.5 35.5 C212.87285156 34.37658203 212.87285156 34.37658203 214.2734375 33.23046875 C216.02817784 31.79500065 217.78335155 30.36006204 219.5390625 28.92578125 C223.75282251 25.48221 227.96189052 22.03357908 232.15625 18.56640625 C253.41358845 1 253.41358845 1 255 1 C264.69818803 42.98985017 247.20080315 95.49401804 225.1875 130.8125 C206.44918393 160.03919804 180.94708247 184.16871079 150 200 C149.32114746 200.34901367 148.64229492 200.69802734 147.94287109 201.05761719 C134.46064585 207.90122626 120.55645319 212.8958345 105.8125 216.25 C105.14935791 216.40114258 104.48621582 216.55228516 103.80297852 216.70800781 C91.21641867 219.38580635 78.71553947 220.38093038 65.875 220.3125 C65.15866394 220.31067719 64.44232788 220.30885437 63.70428467 220.30697632 C12.96902538 220.09080894 -32.67858996 198.81677803 -68.75 163.5 C-73.86414001 158.26744285 -78.54531371 152.80199526 -83 147 C-83.77859375 145.98808594 -84.5571875 144.97617187 -85.359375 143.93359375 C-112.47675972 107.78070732 -125.28903657 64.73778945 -125.0625 19.875 C-125.05747515 18.13802212 -125.05291398 16.40104284 -125.04882812 14.6640625 C-125.03790014 10.44267312 -125.02068978 6.22135236 -125 2 C-121.55202999 3.6491083 -118.87945295 5.60581764 -115.9375 8.0625 C-114.95910156 8.87460937 -113.98070313 9.68671875 -112.97265625 10.5234375 C-111.99167969 11.34070313 -111.01070312 12.15796875 -110 13 C-108.2931734 14.39767536 -106.58484533 15.79351922 -104.875 17.1875 C-99.33278415 21.72131841 -93.80657469 26.27447722 -88.28125 30.82885742 C-84.15423216 34.22967175 -80.01947297 37.62048485 -75.875 41 C-71.86453556 44.27572286 -67.91309276 47.60865294 -64 51 C-59.16794446 49.48885154 -56.07490525 46.74049425 -52.375 43.4375 C-51.11932581 42.33888723 -49.8628078 41.24123822 -48.60546875 40.14453125 C-47.68193604 39.33556396 -47.68193604 39.33556396 -46.73974609 38.51025391 C-43.56585057 35.7550311 -40.29600517 33.11969051 -37.03515625 30.46875 C-33.22141002 27.36670673 -29.42153223 24.24807575 -25.625 21.125 C-24.89990234 20.52856689 -24.17480469 19.93213379 -23.42773438 19.31762695 C-18.28336057 15.07766354 -13.17641495 10.7960568 -8.10986328 6.46337891 C-5.47071698 4.21262536 -2.80290965 2.04392699 0 0 Z " fill="#231A71" transform="translate(197,272)"/>
<path d="M0 0 C0.13986328 0.55123535 0.27972656 1.1024707 0.42382812 1.67041016 C13.08418336 51.03968928 37.44463532 96.01950631 78 128 C79.010625 128.81597656 80.02125 129.63195312 81.0625 130.47265625 C88.94840954 136.76943183 97.22269847 142.03733508 106 147 C106.59506348 147.34272949 107.19012695 147.68545898 107.80322266 148.03857422 C153.32547541 174.14233101 208.68652912 180.65087483 259.29418945 167.54003906 C275.25011427 163.15245745 290.49707608 156.95425469 305 149 C306.0516333 148.42378906 306.0516333 148.42378906 307.12451172 147.8359375 C317.07834492 142.31715674 326.2145469 136.22518751 335 129 C335.52513184 128.57638184 336.05026367 128.15276367 336.59130859 127.71630859 C349.30343724 117.45164109 361.15521071 106.07537646 371 93 C371.44520996 92.40944824 371.89041992 91.81889648 372.34912109 91.21044922 C392.85082438 63.76160129 406.29134382 33.28325667 414 0 C424.11452574 1.50726266 434.03847947 3.71991863 444 6 C442.74946159 13.68429114 441.01533085 21.09752132 438.8125 28.5625 C438.51077881 29.59375 438.20905762 30.625 437.89819336 31.6875 C435.11152707 41.00566287 431.7291442 50.02285043 428 59 C428.83877686 59.10957031 429.67755371 59.21914063 430.54174805 59.33203125 C434.32582498 60.06293379 437.76292019 61.27873217 441.33203125 62.6875 C442.00924728 62.95006592 442.68646332 63.21263184 443.38420105 63.4831543 C444.80464032 64.0351993 446.22400644 64.59001284 447.64233398 65.14746094 C449.82090741 66.00330281 452.00288172 66.84996749 454.18554688 67.6953125 C455.5679152 68.2338443 456.95008403 68.77288852 458.33203125 69.3125 C458.9861348 69.56668701 459.64023834 69.82087402 460.31416321 70.08276367 C464.88371839 71.88371839 464.88371839 71.88371839 466 73 C466.88383006 80.84784702 465.55604991 86.53219485 461.8125 93.375 C461.14408081 94.64802979 461.14408081 94.64802979 460.4621582 95.94677734 C448.71490272 117.92577346 434.65258969 138.46263736 418 157 C417.30028076 157.78431396 417.30028076 157.78431396 416.58642578 158.58447266 C406.75745499 169.57626883 396.55867755 179.81863911 385 189 C383.14477021 190.54038715 381.29060089 192.08205242 379.4375 193.625 C374.44942838 197.68961376 369.36615695 201.45040202 364 205 C363.36658691 205.42120117 362.73317383 205.84240234 362.08056641 206.27636719 C299.90144628 247.36691473 225.74920236 262.10973195 152.54467773 248.15161133 C129.1698392 243.35799128 106.38231791 235.58326021 85 225 C83.86473877 224.45255127 83.86473877 224.45255127 82.70654297 223.89404297 C59.27961516 212.5404969 37.65821384 197.28569385 18.68359375 179.5 C16.39041542 177.36370577 14.06336739 175.29297234 11.6875 173.25 C5.24961532 167.65010444 -0.51200031 161.52518128 -6 155 C-6.68473389 154.18595703 -6.68473389 154.18595703 -7.38330078 153.35546875 C-55 96.4651623 -55 96.4651623 -55 74 C-46.67101063 70.65574769 -38.33730438 67.32346612 -30 64 C-28.80624756 63.52264404 -28.80624756 63.52264404 -27.58837891 63.03564453 C-25.76944804 62.30990288 -23.94742664 61.59191812 -22.125 60.875 C-21.17882813 60.50117188 -20.23265625 60.12734375 -19.2578125 59.7421875 C-17 59 -17 59 -14 59 C-14.27150879 58.26700684 -14.54301758 57.53401367 -14.82275391 56.77880859 C-19.49037721 44.11518904 -24.10156921 31.47796348 -27.625 18.4375 C-27.8720166 17.52339355 -28.1190332 16.60928711 -28.37353516 15.66748047 C-30 9.44443266 -30 9.44443266 -30 6 C-25.56365291 4.9948379 -21.12574342 3.99675269 -16.6875 3 C-14.79354492 2.57074219 -14.79354492 2.57074219 -12.86132812 2.1328125 C-11.65283203 1.86210937 -10.44433594 1.59140625 -9.19921875 1.3125 C-8.08377686 1.06113281 -6.96833496 0.80976563 -5.8190918 0.55078125 C-3 0 -3 0 0 0 Z " fill="#E67818" transform="translate(55,345)"/>
<path d="M0 0 C125.73 0 251.46 0 381 0 C381 69.3 381 138.6 381 210 C380.34 210 379.68 210 379 210 C378.88785156 208.576875 378.88785156 208.576875 378.7734375 207.125 C374.1976434 157.16058339 348.31130909 107.77578924 309.8125 75.5625 C298.49994028 66.52816411 286.84496665 58.69408088 274 52 C273.39607422 51.68434082 272.79214844 51.36868164 272.16992188 51.04345703 C230.5305078 29.64098103 180.51099461 26.00026852 136 40 C135.24332031 40.2367041 134.48664063 40.4734082 133.70703125 40.71728516 C85.02585018 56.36923535 46.38601505 92.06938841 23 137 C22.48010498 137.99870117 22.48010498 137.99870117 21.94970703 139.01757812 C10.4204179 161.52379026 5.44086902 185.29108894 1 210 C0.67 210 0.34 210 0 210 C0 140.7 0 71.4 0 0 Z " fill="#E57817" transform="translate(72,62)"/>
<path d="M0 0 C3.48509931 1.54444076 6.14322337 3.62475353 9.0625 6.0625 C10.53009766 7.28066406 10.53009766 7.28066406 12.02734375 8.5234375 C13.00832031 9.34070313 13.98929688 10.15796875 15 11 C16.7068266 12.39767536 18.41515467 13.79351922 20.125 15.1875 C22.0838908 16.79099204 24.04231082 18.39504239 26 20 C26.63744141 20.52255371 27.27488281 21.04510742 27.93164062 21.58349609 C35.35293027 27.67110974 42.75975323 33.77038954 50.0625 40 C54.58180831 43.85374377 59.19181724 47.51171055 64 51 C67.91728886 49.3481312 70.8908047 46.69570021 74.0625 43.9375 C75.22723999 42.93807371 76.3926144 41.93938636 77.55859375 40.94140625 C78.13851074 40.44398926 78.71842773 39.94657227 79.31591797 39.43408203 C84.35770729 35.14074042 89.53356371 31.00488096 94.671875 26.828125 C99.1123813 23.20898402 103.52845778 19.56610172 107.89331055 15.85620117 C110.07305095 14.00356529 112.25842271 12.15766472 114.4453125 10.31347656 C115.93578427 9.05425261 117.42113713 7.78897723 118.90625 6.5234375 C120.22109375 5.42902344 120.22109375 5.42902344 121.5625 4.3125 C122.32691406 3.66925781 123.09132813 3.02601563 123.87890625 2.36328125 C126 1 126 1 130 1 C132.41015625 2.65234375 132.41015625 2.65234375 135.0625 4.9375 C136.04089844 5.76765625 137.01929688 6.5978125 138.02734375 7.453125 C139.00832031 8.29359375 139.98929687 9.1340625 141 10 C142.70428069 11.40077865 144.41259679 12.79666258 146.125 14.1875 C155.33573645 21.72355709 164.51295348 29.3005115 173.6953125 36.87109375 C174.45827637 37.49991455 175.22124023 38.12873535 176.00732422 38.77661133 C177.46493759 39.97796021 178.92230799 41.17960399 180.37939453 42.3815918 C183.89843529 45.28166071 187.42961855 48.163069 191 51 C194.48509931 49.45555924 197.14322337 47.37524647 200.0625 44.9375 C201.03316406 44.13183594 202.00382812 43.32617188 203.00390625 42.49609375 C203.99261719 41.67238281 204.98132813 40.84867187 206 40 C207.8317253 38.49803678 209.6650256 36.99799201 211.5 35.5 C212.87285156 34.37658203 212.87285156 34.37658203 214.2734375 33.23046875 C216.02817784 31.79500065 217.78335155 30.36006204 219.5390625 28.92578125 C223.75282251 25.48221 227.96189052 22.03357908 232.15625 18.56640625 C253.41358845 1 253.41358845 1 255 1 C257.27515348 11.26893599 259.4818907 27.08555553 254.00390625 36.390625 C251.13180315 38.64162017 248.21503581 40.27916841 245 42 C242.74228558 43.73157235 240.62884129 45.61362862 238.5 47.5 C237.39838345 48.44049521 236.29423475 49.37803305 235.1875 50.3125 C234.65125 50.76625 234.115 51.22 233.5625 51.6875 C230.34328358 54.39164179 227.07306548 57.03355136 223.8125 59.6875 C220.68200116 62.26146571 217.58835556 64.8757825 214.5 67.5 C208.72485007 72.40480439 202.91314701 77.26158503 197 82 C196.34128906 82.61875 195.68257813 83.2375 195.00390625 83.875 C193 85 193 85 190.68359375 84.55859375 C187.07313822 82.46169163 184.149529 79.85720888 181.0625 77.0625 C176.15613065 72.70984259 171.19843825 68.49959807 166 64.5 C160.93867866 60.59351941 156.06135065 56.52296184 151.25 52.3125 C140.0938727 42.54666275 140.0938727 42.54666275 128 34 C127.00033203 34.81791016 127.00033203 34.81791016 125.98046875 35.65234375 C125.05878906 36.40644531 124.13710938 37.16054688 123.1875 37.9375 C122.17816406 38.76378906 121.16882813 39.59007812 120.12890625 40.44140625 C118.18077701 42.03554834 116.23007475 43.62632369 114.27734375 45.21484375 C109.2860088 49.27995159 104.34119756 53.3925674 99.4375 57.5625 C94.98200854 61.34921455 90.48182289 65.05945099 85.8828125 68.671875 C83.46493406 70.6245248 81.10028077 72.61704954 78.7421875 74.640625 C77.60281738 75.60778442 77.60281738 75.60778442 76.44042969 76.59448242 C74.9141438 77.89176105 73.39629584 79.19904265 71.88769531 80.5168457 C71.18483398 81.11070068 70.48197266 81.70455566 69.7578125 82.31640625 C69.1302002 82.85724854 68.50258789 83.39809082 67.85595703 83.95532227 C66 85 66 85 63.97265625 84.83398438 C61.81239218 83.92068461 60.42248542 82.90526357 58.6796875 81.33984375 C58.06722168 80.79763184 57.45475586 80.25541992 56.82373047 79.69677734 C56.18064941 79.11621582 55.53756836 78.5356543 54.875 77.9375 C53.5221066 76.73944605 52.16794018 75.54282809 50.8125 74.34765625 C50.15636719 73.76773926 49.50023437 73.18782227 48.82421875 72.59033203 C45.80774184 69.96060363 42.6666816 67.49835063 39.5234375 65.0234375 C36.46622316 62.57198699 33.48283981 60.04100154 30.5 57.5 C25.9198093 53.60062151 21.28139902 49.79485655 16.56640625 46.05859375 C11.64912511 42.11429062 6.83022682 38.05008709 2 34 C-1.91728886 35.6518688 -4.8908047 38.30429979 -8.0625 41.0625 C-9.22723999 42.06192629 -10.3926144 43.06061364 -11.55859375 44.05859375 C-12.13851074 44.55601074 -12.71842773 45.05342773 -13.31591797 45.56591797 C-17.48431362 49.11552018 -21.75257314 52.54584257 -26 56 C-32.59389197 61.38297662 -39.17514125 66.78130004 -45.75 72.1875 C-46.45914551 72.76975342 -47.16829102 73.35200684 -47.89892578 73.9519043 C-48.58712402 74.51820557 -49.27532227 75.08450684 -49.984375 75.66796875 C-50.65662109 76.21759277 -51.32886719 76.7672168 -52.02148438 77.33349609 C-53.35293128 78.45497395 -54.65655127 79.61024748 -55.93164062 80.79541016 C-56.53685547 81.35405762 -57.14207031 81.91270508 -57.765625 82.48828125 C-58.29446289 82.99528564 -58.82330078 83.50229004 -59.36816406 84.0246582 C-61 85 -61 85 -63.03076172 84.78930664 C-66.13222617 83.54618309 -68.40942799 81.31898229 -70.875 79.125 C-75.46637121 75.13423472 -80.12384662 71.2820797 -84.9375 67.5625 C-89.74236215 63.83516452 -94.40796986 59.98639596 -99 56 C-104.83712184 50.93308828 -110.83486175 46.11246157 -116.94140625 41.375 C-117.95074219 40.59125 -118.96007812 39.8075 -120 39 C-121.31701904 38.17193848 -121.31701904 38.17193848 -122.66064453 37.32714844 C-125 35 -125 35 -125.56762695 31.51660156 C-125.5668403 30.14102198 -125.53887353 28.76527413 -125.48828125 27.390625 C-125.48120651 26.66381531 -125.47413177 25.93700562 -125.46684265 25.18817139 C-125.4389273 22.87438543 -125.37620383 20.56305002 -125.3125 18.25 C-125.28741299 16.67842046 -125.26460051 15.10680284 -125.24414062 13.53515625 C-125.18911132 9.6891648 -125.10286666 5.84499735 -125 2 C-121.55202999 3.6491083 -118.87945295 5.60581764 -115.9375 8.0625 C-114.95910156 8.87460937 -113.98070313 9.68671875 -112.97265625 10.5234375 C-111.99167969 11.34070313 -111.01070312 12.15796875 -110 13 C-108.2931734 14.39767536 -106.58484533 15.79351922 -104.875 17.1875 C-99.33278415 21.72131841 -93.80657469 26.27447722 -88.28125 30.82885742 C-84.15423216 34.22967175 -80.01947297 37.62048485 -75.875 41 C-71.86453556 44.27572286 -67.91309276 47.60865294 -64 51 C-59.16794446 49.48885154 -56.07490525 46.74049425 -52.375 43.4375 C-51.11932581 42.33888723 -49.8628078 41.24123822 -48.60546875 40.14453125 C-47.68193604 39.33556396 -47.68193604 39.33556396 -46.73974609 38.51025391 C-43.56585057 35.7550311 -40.29600517 33.11969051 -37.03515625 30.46875 C-33.22141002 27.36670673 -29.42153223 24.24807575 -25.625 21.125 C-24.89990234 20.52856689 -24.17480469 19.93213379 -23.42773438 19.31762695 C-18.28336057 15.07766354 -13.17641495 10.7960568 -8.10986328 6.46337891 C-5.47071698 4.21262536 -2.80290965 2.04392699 0 0 Z " fill="#241B71" transform="translate(197,272)"/>
<path d="M0 0 C3.94563047 1.65830846 6.9341957 4.34712332 10.125 7.125 C11.29334696 8.12868061 12.46262553 9.13127775 13.6328125 10.1328125 C14.20676758 10.62426758 14.78072266 11.11572266 15.37207031 11.62207031 C17.54513275 13.4614171 19.76629377 15.2350059 22 17 C26.47931906 20.54855146 30.83340036 24.22936876 35.18359375 27.93359375 C39.18459067 31.33208761 43.25373943 34.62875605 47.3828125 37.87109375 C49.42544367 39.53263702 51.40073796 41.22427172 53.3671875 42.97265625 C53.94855469 43.48376953 54.52992188 43.99488281 55.12890625 44.52148438 C56.27368426 45.53180859 57.40952233 46.55237399 58.53515625 47.58398438 C61.39068512 50.18746238 61.39068512 50.18746238 65.015625 51.11328125 C67.94495646 49.46985711 70.37895611 47.34613921 72.875 45.125 C77.44449178 41.15248812 82.08041001 37.32249976 86.875 33.625 C92.64517974 29.15387866 98.17044264 24.44598381 103.66210938 19.63867188 C108.65797218 15.27187888 113.76474217 11.07780287 119 7 C119.86109375 6.32710938 120.7221875 5.65421875 121.609375 4.9609375 C123.73630149 3.30299169 125.86631122 1.64922805 128 0 C137.43274644 6.89212132 146.33827335 14.41932086 155.2331543 21.9831543 C159.22605503 25.36950847 163.29316304 28.64898573 167.3984375 31.8984375 C169.94020752 33.95169917 172.43430795 36.05070175 174.91992188 38.17114258 C176.59014178 39.59527767 178.26647238 41.01182368 179.9453125 42.42578125 C181.78298989 43.9744122 183.61352768 45.53165823 185.4296875 47.10546875 C186.11289062 47.66878906 186.79609375 48.23210937 187.5 48.8125 C188.35078125 49.53373047 188.35078125 49.53373047 189.21875 50.26953125 C191.0750422 51.23646262 191.0750422 51.23646262 193.4296875 50.390625 C196.26079094 48.85890338 198.29005253 47.15140505 200.625 44.9375 C204.97951417 40.90458953 209.46570731 37.11965002 214.078125 33.38671875 C217.27410792 30.77609633 220.42075057 28.11283497 223.5625 25.4375 C228.10154222 21.57682742 232.70222363 17.8148283 237.37890625 14.12109375 C239.41508005 12.47334059 241.41479122 10.80261314 243.40234375 9.09765625 C243.98822266 8.59556641 244.57410156 8.09347656 245.17773438 7.57617188 C246.3296182 6.5853728 247.4782001 5.5907188 248.62304688 4.59179688 C251.08189757 2.47688358 252.88937293 1.03687569 256 0 C255.19781594 10.60782872 254.22451049 21.16275161 252.25 31.625 C252.05132324 32.82249878 252.05132324 32.82249878 251.84863281 34.04418945 C251.390625 36.2890625 251.390625 36.2890625 250 40 C247.27734375 41.671875 247.27734375 41.671875 244 43 C241.64750423 44.73338065 239.49305218 46.68177644 237.3125 48.625 C236.06593754 49.71449592 234.81853407 50.8030303 233.5703125 51.890625 C232.9609082 52.42365234 232.35150391 52.95667969 231.72363281 53.50585938 C228.55910317 56.24904937 225.30180502 58.87627533 222.05078125 61.515625 C218.89827056 64.08284241 215.76360812 66.6707066 212.63085938 69.26196289 C209.72664178 71.66045688 206.81349959 74.04797388 203.89990234 76.43505859 C202.2738315 77.77444617 200.6609253 79.12978885 199.05078125 80.48828125 C198.27089844 81.13152344 197.49101562 81.77476562 196.6875 82.4375 C195.73423828 83.23994141 195.73423828 83.23994141 194.76171875 84.05859375 C193 85 193 85 191.09741211 84.72509766 C188.7718752 83.92113483 187.503646 82.97816381 185.6796875 81.33984375 C185.06722168 80.79763184 184.45475586 80.25541992 183.82373047 79.69677734 C183.18064941 79.11621582 182.53756836 78.5356543 181.875 77.9375 C180.5221066 76.73944605 179.16794018 75.54282809 177.8125 74.34765625 C177.15636719 73.76773926 176.50023437 73.18782227 175.82421875 72.59033203 C172.80774184 69.96060363 169.6666816 67.49835063 166.5234375 65.0234375 C163.46622316 62.57198699 160.48283981 60.04100154 157.5 57.5 C152.9198093 53.60062151 148.28139902 49.79485655 143.56640625 46.05859375 C138.64912511 42.11429062 133.83022682 38.05008709 129 34 C124.6636828 36.78068771 120.70951016 39.81481268 116.8125 43.1875 C115.65815426 44.17518339 114.50319777 45.16215339 113.34765625 46.1484375 C112.77934082 46.6340918 112.21102539 47.11974609 111.62548828 47.62011719 C108.47836353 50.29172264 105.27038895 52.88845128 102.0703125 55.49609375 C98.24780697 58.61342968 94.43460548 61.74191773 90.625 64.875 C89.90070801 65.47062744 89.17641602 66.06625488 88.43017578 66.67993164 C83.25270949 70.94655812 78.11505743 75.25745913 73.02197266 79.62451172 C66.69779535 85.02411388 66.69779535 85.02411388 64.19140625 84.9375 C60.95845294 83.55441837 58.54236325 81.30528085 55.9375 79 C54.76496836 77.98493104 53.59178226 76.9706176 52.41796875 75.95703125 C51.83708496 75.45252441 51.25620117 74.94801758 50.65771484 74.42822266 C48.38843641 72.47310059 46.07389521 70.57722184 43.75 68.6875 C32.66482548 59.65453709 21.61742917 50.58065854 10.734375 41.3046875 C9.83203125 40.54414063 8.9296875 39.78359375 8 39 C7.15953125 38.21882813 6.3190625 37.43765625 5.453125 36.6328125 C3.15774566 34.7975229 3.15774566 34.7975229 0.6015625 34.90625 C-3.05132761 36.4419996 -5.72574504 38.86995871 -8.625 41.5 C-9.87281413 42.60126262 -11.12152146 43.70151396 -12.37109375 44.80078125 C-12.98581543 45.34557129 -13.60053711 45.89036133 -14.23388672 46.45166016 C-16.67160782 48.58879414 -19.17213995 50.64263895 -21.6875 52.6875 C-23.01201172 53.76451172 -23.01201172 53.76451172 -24.36328125 54.86328125 C-25.23339844 55.56839844 -26.10351562 56.27351563 -27 57 C-32.90388421 61.79744617 -38.76650678 66.63556662 -44.5625 71.5625 C-52.6154289 78.38412701 -52.6154289 78.38412701 -56.625 81.6875 C-57.40101563 82.33074219 -58.17703125 82.97398437 -58.9765625 83.63671875 C-61 85 -61 85 -64 85 C-66.0922167 83.41003418 -68.0388604 81.8016022 -70 80.0625 C-71.1738119 79.04480278 -72.34830146 78.0278867 -73.5234375 77.01171875 C-74.10963867 76.5017334 -74.69583984 75.99174805 -75.29980469 75.46630859 C-77.70569112 73.39138701 -80.16130824 71.3807433 -82.625 69.375 C-83.51703125 68.64796875 -84.4090625 67.9209375 -85.328125 67.171875 C-86.65070313 66.09679687 -86.65070313 66.09679687 -88 65 C-97.77777312 57.05198559 -97.77777312 57.05198559 -102.3359375 53.1640625 C-102.90393066 52.6798584 -103.47192383 52.1956543 -104.05712891 51.69677734 C-105.14759486 50.76483312 -106.23598099 49.83044698 -107.32177734 48.89306641 C-108.08288818 48.24217041 -108.08288818 48.24217041 -108.859375 47.578125 C-109.3644458 47.14556396 -109.8695166 46.71300293 -110.38989258 46.26733398 C-111.99716066 44.95358169 -111.99716066 44.95358169 -113.8659668 43.84399414 C-117.27298335 41.72705164 -119.30559833 40.20174504 -120.48828125 36.27734375 C-120.79509502 34.83719067 -121.06831884 33.38958511 -121.3125 31.9375 C-121.46364258 31.16615723 -121.61478516 30.39481445 -121.77050781 29.60009766 C-123.46023907 20.48175306 -124.26726934 11.23626274 -125 2 C-121.14664168 3.63168522 -118.23971748 6.214891 -115.125 8.9375 C-110.52786739 12.89666852 -105.86020101 16.72417389 -101.0625 20.4375 C-95.65506745 24.63302531 -90.44251627 29.0090732 -85.27661133 33.49731445 C-80.45313211 37.66586255 -75.4842631 41.6242091 -70.44140625 45.5234375 C-68.18401081 47.27041952 -66.02095379 48.97904621 -64 51 C-59.47698453 50.47453287 -56.69988299 47.41752408 -53.4375 44.5 C-52.18054817 43.39875645 -50.92272654 42.29850492 -49.6640625 41.19921875 C-49.04305664 40.65442871 -48.42205078 40.10963867 -47.78222656 39.54833984 C-43.61141221 35.92487346 -39.29193771 32.47805915 -35 29 C-28.53683718 23.74808878 -22.13538492 18.43397913 -15.79248047 13.03808594 C-11.53674098 9.42831832 -7.20654098 5.92129851 -2.828125 2.4609375 C-1.09166198 1.12864522 -1.09166198 1.12864522 0 0 Z " fill="#00A8E5" transform="translate(197,305)"/>
<path d="M0 0 C5.54638501 4.02384795 10.80508573 8.32293538 16.01733398 12.765625 C20.27848351 16.39660023 24.58966757 19.9595469 28.9296875 23.49609375 C32.01421423 26.01159201 35.09338448 28.53339885 38.16796875 31.06103516 C39.63521495 32.2669687 41.10395882 33.47108244 42.57421875 34.67333984 C46.04025692 37.51701025 49.46522447 40.38712058 52.8046875 43.37890625 C53.38943848 43.89662598 53.97418945 44.4143457 54.57666016 44.94775391 C55.66331126 45.91518096 56.73929213 46.89477805 57.80224609 47.88818359 C60.10211718 49.92407215 61.44112003 50.99149346 64.56640625 51.0390625 C67.54302214 49.76814785 69.35672789 48.18351676 71.6875 45.9375 C74.97452524 42.85894391 78.2725887 39.90965335 81.8125 37.125 C85.78162895 33.99705223 89.65437342 30.77704523 93.5 27.5 C98.91674994 22.89137828 104.41369209 18.40245458 110 14 C111.26070313 12.98679687 111.26070313 12.98679687 112.546875 11.953125 C113.35640625 11.30859375 114.1659375 10.6640625 115 10 C116.0828125 9.13375 116.0828125 9.13375 117.1875 8.25 C119 7 119 7 121 7 C119.28480665 22.88141992 111.59479574 46.1333809 100.40625 57.67578125 C97.75 59.5625 97.75 59.5625 94.984375 61.1953125 C91.29836636 63.42428631 88.22384084 66.09682416 85 68.9375 C83.81586743 69.9657234 82.63097909 70.99307713 81.4453125 72.01953125 C80.86942383 72.5192041 80.29353516 73.01887695 79.70019531 73.53369141 C77.11659448 75.76188018 74.50290681 77.94909316 71.875 80.125 C71.02679688 80.82882812 70.17859375 81.53265625 69.3046875 82.2578125 C67.25504795 83.80720104 65.33792533 84.9549366 63 86 C62.39414062 85.443125 61.78828125 84.88625 61.1640625 84.3125 C56.14232684 79.73885767 51.03316683 75.36758202 45.69921875 71.1640625 C42.58295176 68.66563715 39.53969917 66.09053704 36.5 63.5 C31.93728727 59.614446 27.31140138 55.8309628 22.61328125 52.109375 C18.87157563 49.08916419 15.21088481 45.97604152 11.55273438 42.85546875 C10.03913995 41.56562307 8.51968219 40.28266753 7 39 C6.12988281 38.21109375 5.25976562 37.4221875 4.36328125 36.609375 C2.19829712 34.80592694 2.19829712 34.80592694 -0.01953125 35.01953125 C-2.57299384 36.28367151 -4.51225391 37.8400775 -6.6875 39.6875 C-7.65300781 40.49832031 -8.61851562 41.30914062 -9.61328125 42.14453125 C-10.14904785 42.59779785 -10.68481445 43.05106445 -11.23681641 43.51806641 C-13.8675008 45.72912349 -16.52856717 47.90267896 -19.18652344 50.08081055 C-25.14409966 54.96503942 -31.07013161 59.88275256 -36.9375 64.875 C-42.20835704 69.35817422 -47.57408837 73.70630107 -53 78 C-54.87575492 79.49905586 -56.75076961 80.99903849 -58.625 82.5 C-60.08333333 83.66666667 -61.54166667 84.83333333 -63 86 C-68.54171932 81.97953696 -73.79664326 77.68478182 -79.00415039 73.24536133 C-84.27453135 68.75380953 -89.62764198 64.36899116 -95 60 C-96.70893198 58.60489966 -98.41725079 57.20904792 -100.125 55.8125 C-101.01703125 55.08546875 -101.9090625 54.3584375 -102.828125 53.609375 C-105.33517141 51.55695725 -107.81726907 49.47609269 -110.296875 47.390625 C-111.05210449 46.75922607 -111.80733398 46.12782715 -112.58544922 45.47729492 C-114.08619322 44.22219413 -115.5827813 42.9621035 -117.07470703 41.6965332 C-120.56096824 38.78969815 -123.56644916 36.31267878 -128 35 C-128.99966797 35.81791016 -128.99966797 35.81791016 -130.01953125 36.65234375 C-130.94121094 37.40644531 -131.86289063 38.16054688 -132.8125 38.9375 C-133.82183594 39.76378906 -134.83117187 40.59007812 -135.87109375 41.44140625 C-137.81922299 43.03554834 -139.76992525 44.62632369 -141.72265625 46.21484375 C-146.71398678 50.27994799 -151.65894595 54.39240188 -156.5625 58.5625 C-161.10460651 62.4252146 -165.70874948 66.18874959 -170.38671875 69.88671875 C-174.14083812 72.92256117 -177.80232968 76.06650977 -181.44726562 79.23242188 C-184.47938312 81.83514634 -187.50709738 84.05662904 -191 86 C-192.16402344 85.00033203 -192.16402344 85.00033203 -193.3515625 83.98046875 C-199.23036382 78.95569493 -205.16372423 74.02207994 -211.25 69.25 C-211.8387793 68.78319824 -212.42755859 68.31639648 -213.03417969 67.83544922 C-215.50862818 65.88548377 -217.95421105 64.02963219 -220.6015625 62.31640625 C-228.42896333 57.13848646 -231.3358751 49.31252262 -235 41 C-235.53496094 39.85015625 -236.06992188 38.7003125 -236.62109375 37.515625 C-240.94288843 27.95154949 -243.98257433 18.03668538 -247 8 C-242.69804318 8 -240.73270399 10.5708158 -237.6875 13.3125 C-232.8980668 17.52760075 -228.0517203 21.60289734 -223 25.5 C-217.54855172 29.72276982 -212.28261874 34.12061028 -207.06982422 38.63378906 C-201.79785256 43.19552358 -196.42248021 47.61775069 -191 52 C-185.90552671 48.33197923 -181.11249003 44.42269004 -176.375 40.3125 C-171.70112281 36.25963186 -166.95790784 32.34462195 -162.0625 28.5625 C-156.98285158 24.63282555 -152.08385853 20.54067904 -147.25 16.3125 C-138.34205157 8.54018076 -138.34205157 8.54018076 -134.375 5.25 C-133.64023438 4.63640625 -132.90546875 4.0228125 -132.1484375 3.390625 C-129.50969656 1.68263996 -128.17764611 0.92534165 -125 1 C-122.40152762 2.60190832 -120.27387536 4.65828283 -118.0625 6.75 C-116.7225719 7.96632335 -115.38006956 9.17981619 -114.03515625 10.390625 C-113.35984863 11.00228516 -112.68454102 11.61394531 -111.98876953 12.24414062 C-109.09457424 14.79938891 -106.0644365 17.15408481 -103 19.5 C-97.26738076 23.92216674 -91.78879723 28.58702951 -86.34399414 33.35742188 C-82.01661879 37.14223852 -77.6138044 40.80010055 -73.08203125 44.33984375 C-71.1895531 45.84885541 -69.41356014 47.43371198 -67.625 49.0625 C-65.29036899 51.22877697 -65.29036899 51.22877697 -63.12890625 50.8515625 C-60.38461518 49.75384607 -58.56854028 48.22854049 -56.3125 46.3125 C-55.34699219 45.50167969 -54.38148438 44.69085938 -53.38671875 43.85546875 C-52.85095215 43.40220215 -52.31518555 42.94893555 -51.76318359 42.48193359 C-49.1324992 40.27087651 -46.47143283 38.09732104 -43.81347656 35.91918945 C-37.85590034 31.03496058 -31.92986839 26.11724744 -26.0625 21.125 C-20.79164296 16.64182578 -15.42591163 12.29369893 -10 8 C-8.12424508 6.50094414 -6.24923039 5.00096151 -4.375 3.5 C-2.91666667 2.33333333 -1.45833333 1.16666667 0 0 Z " fill="#231B71" transform="translate(325,338)"/>
<path d="M0 0 C3.37980754 1.94488925 6.19043921 4.36556009 9.078125 6.95703125 C13.80531025 11.1096346 18.59378236 15.11692647 23.578125 18.95703125 C29.32834171 23.40410338 34.82912284 28.0903181 40.29858398 32.87670898 C47.46878018 39.14226747 54.82148802 45.08013161 62.640625 50.51953125 C63.87425781 49.46765625 63.87425781 49.46765625 65.1328125 48.39453125 C70.2527926 44.03946384 75.37091775 39.6935568 80.640625 35.51953125 C84.5420383 32.42880123 88.35165155 29.24587291 92.140625 26.01953125 C96.7007452 22.13655187 101.3226735 18.35410041 106.01953125 14.63671875 C109.82718194 11.56109032 113.54812282 8.3852052 117.26367188 5.19921875 C119.65974289 3.1530035 122.01469213 1.27015316 124.640625 -0.48046875 C129.10464379 0.03004693 131.80230603 3.00606941 135.015625 5.89453125 C139.76308462 10.06918263 144.56945677 14.09965809 149.578125 17.95703125 C155.32872883 22.40421895 160.83188834 27.08863987 166.29858398 31.87890625 C170.59938817 35.64105012 174.98695255 39.26074409 179.4765625 42.796875 C182.60574773 45.28779682 185.62279109 47.89532785 188.640625 50.51953125 C192.78483808 48.81908018 195.8842533 45.87789163 199.203125 42.95703125 C200.45623025 41.86886856 201.71014567 40.7816382 202.96484375 39.6953125 C203.58536621 39.15729004 204.20588867 38.61926758 204.84521484 38.06494141 C211.56479016 32.28102629 218.48175411 26.75022488 225.640625 21.51953125 C225.970625 22.17953125 226.300625 22.83953125 226.640625 23.51953125 C225.35086984 25.99413325 224.0096702 28.29560013 222.515625 30.64453125 C222.06622559 31.35520752 221.61682617 32.06588379 221.15380859 32.7980957 C210.38915089 49.43222056 196.67735178 64.64516562 181.640625 77.51953125 C178.83427984 76.22376578 176.62822524 74.81251292 174.3203125 72.76171875 C173.70784668 72.22272949 173.09538086 71.68374023 172.46435547 71.12841797 C171.82127441 70.55623535 171.17819336 69.98405273 170.515625 69.39453125 C165.48819826 64.97634305 160.41357364 60.67457018 155.15234375 56.53515625 C152.15820333 54.13239348 149.24440116 51.64043551 146.328125 49.14453125 C139.94737346 43.69345092 133.33851267 38.57309298 126.640625 33.51953125 C123.30750474 35.01447763 120.7523325 36.93173158 117.953125 39.26953125 C116.98761719 40.07132812 116.02210938 40.873125 115.02734375 41.69921875 C114.22369385 42.36969238 114.22369385 42.36969238 113.40380859 43.05371094 C111.47500732 44.65721728 109.53723804 46.24939579 107.59765625 47.83984375 C100.92647299 53.31203758 94.27486111 58.80312028 87.703125 64.39453125 C79.53449477 71.34074764 71.12337178 77.96281876 62.640625 84.51953125 C56.70691295 80.18401098 51.00404028 75.60065383 45.33935547 70.92089844 C43.43353719 69.34869422 41.52357921 67.78160161 39.61328125 66.21484375 C32.93832436 60.73574085 26.28030367 55.24082443 19.703125 49.64453125 C14.43378685 45.16189219 9.09361255 40.77748101 3.640625 36.51953125 C2.99222656 35.91109375 2.34382813 35.30265625 1.67578125 34.67578125 C-0.34385266 33.22624472 -0.34385266 33.22624472 -2.81640625 34.07421875 C-5.61685564 35.66587202 -7.71041343 37.4277892 -10.046875 39.64453125 C-14.11900742 43.41635892 -18.30254738 46.92137196 -22.66015625 50.35546875 C-25.7764236 52.85389439 -28.81966785 55.42900263 -31.859375 58.01953125 C-36.57037138 62.03112055 -41.34222921 65.94843361 -46.19140625 69.79296875 C-48.9520828 71.9915616 -51.6599678 74.24634624 -54.359375 76.51953125 C-73.35370719 68.24218465 -90.521071 42.16062809 -100.359375 24.51953125 C-100.029375 23.85953125 -99.699375 23.19953125 -99.359375 22.51953125 C-98.14314453 23.55400391 -98.14314453 23.55400391 -96.90234375 24.609375 C-86.52664249 33.42059904 -76.00931662 42.04116124 -65.359375 50.51953125 C-59.78333103 46.47416601 -54.51606374 42.1590419 -49.28051758 37.69018555 C-46.01651948 34.90866289 -42.72248626 32.18153788 -39.359375 29.51953125 C-35.45795177 26.42879337 -31.64851483 23.24568803 -27.859375 20.01953125 C-23.2050111 16.05992954 -18.51755874 12.15692079 -13.70703125 8.38671875 C-12.081793 7.09409998 -10.48681762 5.76284949 -8.91796875 4.40234375 C-8.13550781 3.73976563 -7.35304688 3.0771875 -6.546875 2.39453125 C-5.85980469 1.79382813 -5.17273438 1.193125 -4.46484375 0.57421875 C-2.359375 -0.48046875 -2.359375 -0.48046875 0 0 Z " fill="#00A8E5" transform="translate(199.359375,372.48046875)"/>
<path d="M0 0 C5.07889495 1.52850553 8.3337534 4.65115204 12.1875 8.125 C13.53653091 9.31779824 14.88678993 10.50920897 16.23828125 11.69921875 C16.88877441 12.27333496 17.53926758 12.84745117 18.20947266 13.43896484 C21.13551134 15.98997266 24.17546113 18.38578382 27.22265625 20.7890625 C36.92905019 28.51595276 46.46116656 36.47358308 55.88989258 44.53637695 C58.5290957 46.78724331 61.19699682 48.95600481 64 51 C67.42673696 49.47260916 70.05841282 47.45668829 72.9375 45.0625 C73.90429688 44.26070312 74.87109375 43.45890625 75.8671875 42.6328125 C79.67001646 39.44497041 83.45176835 36.23219287 87.23217773 33.01782227 C91.22803299 29.62860241 95.29912899 26.34744327 99.40625 23.09375 C102.48081378 20.61187321 105.49130663 18.06097114 108.5 15.5 C112.48045618 12.12209529 116.46288 8.7476981 120.5 5.4375 C121.62921875 4.50744141 121.62921875 4.50744141 122.78125 3.55859375 C125.10550061 1.92588953 127.32999095 0.94484475 130 0 C130.52207031 0.47308594 131.04414063 0.94617188 131.58203125 1.43359375 C136.55969686 5.90564709 141.63918139 10.21844713 146.8359375 14.43359375 C147.2889624 14.82216553 147.7419873 15.2107373 148.20874023 15.61108398 C150.10336358 17.13626181 150.10336358 17.13626181 152.77758789 18.67211914 C160.27870467 23.65977271 160.27870467 23.65977271 161.5748291 27.86502075 C162.36823481 33.08952101 162.00461478 38.31079644 161.6875 43.5625 C161.63223551 45.15933578 161.58206064 46.75635625 161.53710938 48.35351562 C161.41672835 52.24029059 161.2275244 56.1180837 161 60 C155.83431947 56.21429053 150.88337532 52.27647014 146.0625 48.0625 C143.71168705 46.03775129 141.35603731 44.01866557 139 42 C138.08863281 41.21882813 137.17726563 40.43765625 136.23828125 39.6328125 C135.45839844 38.99085938 134.67851562 38.34890625 133.875 37.6875 C133.21242188 37.13449219 132.54984375 36.58148438 131.8671875 36.01171875 C130.06375367 34.79221326 130.06375367 34.79221326 128.06835938 35.29077148 C124.66264922 36.45856988 122.26154616 39.00503795 119.625 41.375 C114.8558326 45.56805999 110.02741746 49.62018384 105 53.5 C99.54327371 57.72703072 94.27255463 62.1295854 89.05444336 66.64697266 C84.57647584 70.52141832 80.01860548 74.28638771 75.421875 78.01953125 C72.2337135 80.62662461 69.1121233 83.30282648 66 86 C61.80126351 84.28327523 58.73440765 81.33418613 55.375 78.375 C54.10914401 77.27480808 52.84221396 76.17585075 51.57421875 75.078125 C50.95853027 74.54509766 50.3428418 74.01207031 49.70849609 73.46289062 C46.8008636 70.97324588 43.79879116 68.60843942 40.796875 66.234375 C37.14641868 63.31808867 33.54225913 60.3474662 29.9375 57.375 C29.21884766 56.78388428 28.50019531 56.19276855 27.75976562 55.58374023 C23.91156912 52.41526158 20.07888402 49.22999355 16.265625 46.01953125 C15.49871338 45.37773926 14.73180176 44.73594727 13.94165039 44.07470703 C12.46736591 42.84041492 10.99759351 41.60070815 9.53295898 40.35498047 C8.86594971 39.7982666 8.19894043 39.24155273 7.51171875 38.66796875 C6.92865967 38.17578857 6.34560059 37.6836084 5.74487305 37.17651367 C3.77878657 35.85084266 2.35870488 35.25755464 0 35 C-2.15187972 36.50815502 -3.95648197 37.98210221 -5.875 39.75 C-7.02392125 40.7680231 -8.17504144 41.78356884 -9.328125 42.796875 C-9.92560547 43.32474609 -10.52308594 43.85261719 -11.13867188 44.39648438 C-14.78282492 47.5358859 -18.6091198 50.44594362 -22.41748047 53.38183594 C-24.64412495 55.10814714 -26.80058501 56.79619261 -28.7734375 58.8125 C-30 60 -30 60 -32 60 C-32.24929646 55.4654891 -32.4295585 50.93504657 -32.54931641 46.39526367 C-32.59927231 44.85549395 -32.66727252 43.31619065 -32.75439453 41.77807617 C-33.45732341 29.03852392 -33.45732341 29.03852392 -29.90087891 24.0637207 C-27.37451337 21.77819546 -24.83532064 19.88200304 -22 18 C-20.36500243 16.69997531 -18.73848426 15.389131 -17.125 14.0625 C-16.31546875 13.42441406 -15.5059375 12.78632813 -14.671875 12.12890625 C-9.70873681 8.17435901 -4.86251575 4.07716097 0 0 Z " fill="#D6281E" transform="translate(198,178)"/>
<path d="M0 0 C4.99633562 1.52062389 8.15033289 4.50899786 11.9375 7.9375 C16.86545234 12.30868995 21.84548721 16.5402512 27.0625 20.5625 C32.49904083 24.76576569 37.74552517 29.14633108 42.94140625 33.64282227 C49.82510999 39.59679674 56.88824951 45.32074114 64 51 C67.33312026 49.50505362 69.8882925 47.58779967 72.6875 45.25 C73.65300781 44.44820313 74.61851562 43.64640625 75.61328125 42.8203125 C76.41693115 42.14983887 76.41693115 42.14983887 77.23681641 41.46582031 C79.16561768 39.86231397 81.10338696 38.27013546 83.04296875 36.6796875 C89.71415201 31.20749367 96.36576389 25.71641097 102.9375 20.125 C111.10613023 13.17878361 119.51725322 6.55671249 128 0 C131.91726844 1.65186018 134.89085376 4.30424004 138.0625 7.0625 C139.21941456 8.05543079 140.3769778 9.04760623 141.53515625 10.0390625 C142.40358154 10.78397949 142.40358154 10.78397949 143.28955078 11.54394531 C150.67327988 17.97514193 150.67327988 17.97514193 158.62182617 23.6340332 C161 26 161 26 161.56762695 29.57519531 C161.56683996 30.99308502 161.53885412 32.41113727 161.48828125 33.828125 C161.47766914 34.95163361 161.47766914 34.95163361 161.46684265 36.09783936 C161.43892138 38.48292237 161.37619535 40.86563056 161.3125 43.25 C161.28741382 44.86975768 161.2646012 46.48955228 161.24414062 48.109375 C161.18910325 52.07382739 161.10285322 56.03651153 161 60 C156.06183493 56.3639303 151.27056584 52.62710942 146.625 48.625 C145.50445229 47.67383551 144.38335224 46.72332137 143.26171875 45.7734375 C141.19250751 44.0179277 139.13466262 42.25166272 137.08203125 40.4765625 C136.20933594 39.74179687 135.33664062 39.00703125 134.4375 38.25 C133.67308594 37.59515625 132.90867187 36.9403125 132.12109375 36.265625 C130.12612458 34.77449506 130.12612458 34.77449506 128.05249023 35.27490234 C124.66461563 36.47176063 122.25785731 39.00831685 119.625 41.375 C114.87754038 45.54965138 110.07116823 49.58012684 105.0625 53.4375 C99.31189617 57.8846877 93.80873666 62.56910862 88.34204102 67.359375 C84.04123683 71.12151887 79.65367245 74.74121284 75.1640625 78.27734375 C72.03487727 80.76826557 69.01783391 83.3757966 66 86 C62.08271114 84.3481312 59.1091953 81.69570021 55.9375 78.9375 C54.77276001 77.93807371 53.6073856 76.93938636 52.44140625 75.94140625 C51.86148926 75.44398926 51.28157227 74.94657227 50.68408203 74.43408203 C46.51571721 70.88450607 42.24817059 67.4531913 38 64 C32.09690113 59.20157461 26.23344738 54.36452153 20.4375 49.4375 C16.45460389 46.062783 12.47021848 42.69013181 8.4375 39.375 C7.67308594 38.74335938 6.90867188 38.11171875 6.12109375 37.4609375 C3.30863304 35.44743972 3.30863304 35.44743972 0 35 C-2.15187972 36.50815502 -3.95648197 37.98210221 -5.875 39.75 C-7.02392125 40.7680231 -8.17504144 41.78356884 -9.328125 42.796875 C-9.92560547 43.32474609 -10.52308594 43.85261719 -11.13867188 44.39648438 C-14.78282492 47.5358859 -18.6091198 50.44594362 -22.41748047 53.38183594 C-24.64412495 55.10814714 -26.80058501 56.79619261 -28.7734375 58.8125 C-30 60 -30 60 -32 60 C-32.24929646 55.4654891 -32.4295585 50.93504657 -32.54931641 46.39526367 C-32.59927231 44.85549395 -32.66727252 43.31619065 -32.75439453 41.77807617 C-33.45732341 29.03852392 -33.45732341 29.03852392 -29.90087891 24.0637207 C-27.37451337 21.77819546 -24.83532064 19.88200304 -22 18 C-20.36500243 16.69997531 -18.73848426 15.389131 -17.125 14.0625 C-16.31546875 13.42441406 -15.5059375 12.78632813 -14.671875 12.12890625 C-9.70873681 8.17435901 -4.86251575 4.07716097 0 0 Z " fill="#D6281E" transform="translate(198,225)"/>
<path d="M0 0 C4.83199527 1.51112961 7.92518729 4.25940619 11.625 7.5625 C12.87284052 8.65462625 14.1215476 9.74576314 15.37109375 10.8359375 C16.29317627 11.64369629 16.29317627 11.64369629 17.23388672 12.46777344 C21.40143057 16.08340866 25.71394876 19.52671107 30 23 C36.4623691 28.25126625 42.86257997 33.56522814 49.20532227 38.9597168 C54.05693446 43.07413502 59.00302549 47.06333159 64 51 C67.42673696 49.47260916 70.05841282 47.45668829 72.9375 45.0625 C73.90429688 44.26070312 74.87109375 43.45890625 75.8671875 42.6328125 C79.67001646 39.44497041 83.45176835 36.23219287 87.23217773 33.01782227 C91.23161717 29.62556237 95.30593101 26.34102392 99.41796875 23.0859375 C102.42965021 20.65289983 105.37078798 18.141541 108.3125 15.625 C114.69339644 10.1740741 121.30209921 5.05357163 128 0 C131.85331115 1.63166525 134.76039435 4.21475772 137.875 6.9375 C143.29830373 11.61054742 148.84582621 16.08708598 154.50537109 20.47045898 C156.77892448 22.23510081 158.96246332 23.96246332 161 26 C161.17502995 28.58103306 161.23162279 31.05308163 161.1953125 33.6328125 C161.1924826 34.38464813 161.18965271 35.13648376 161.18673706 35.91110229 C161.17552874 38.31589578 161.15042352 40.72031881 161.125 43.125 C161.11497102 44.75390088 161.10584503 46.38280758 161.09765625 48.01171875 C161.07558735 52.00795556 161.04105351 56.00391494 161 60 C155.83431947 56.21429053 150.88337532 52.27647014 146.0625 48.0625 C143.71168705 46.03775129 141.35603731 44.01866557 139 42 C138.08863281 41.21882813 137.17726563 40.43765625 136.23828125 39.6328125 C135.45839844 38.99085938 134.67851562 38.34890625 133.875 37.6875 C133.21242188 37.13449219 132.54984375 36.58148438 131.8671875 36.01171875 C130.08086872 34.84833692 130.08086872 34.84833692 128.13671875 35.01953125 C124.96395803 36.475405 122.52750473 38.70786882 119.9375 41 C118.76496836 42.01506896 117.59178226 43.0293824 116.41796875 44.04296875 C115.83708496 44.54747559 115.25620117 45.05198242 114.65771484 45.57177734 C112.38843641 47.52689941 110.07389521 49.42277816 107.75 51.3125 C96.70052095 60.31637579 85.68933734 69.36254268 74.83203125 78.59765625 C71.9023166 81.08286247 68.95456265 83.54443015 66 86 C61.80126351 84.28327523 58.73440765 81.33418613 55.375 78.375 C54.10914401 77.27480808 52.84221396 76.17585075 51.57421875 75.078125 C50.95853027 74.54509766 50.3428418 74.01207031 49.70849609 73.46289062 C46.80581886 70.9774888 43.80890712 68.61660662 40.8125 66.24609375 C30.63536536 58.11852095 20.64617515 49.75282805 10.734375 41.3046875 C9.83203125 40.54414063 8.9296875 39.78359375 8 39 C7.13890625 38.21882813 6.2778125 37.43765625 5.390625 36.6328125 C3.20778485 34.81236501 3.20778485 34.81236501 1.00390625 35 C-1.68840505 36.34353156 -3.76691804 38.05264329 -6.0625 40 C-7.51076172 41.21623047 -7.51076172 41.21623047 -8.98828125 42.45703125 C-9.98214844 43.29621094 -10.97601563 44.13539063 -12 45 C-13.91411335 46.56562685 -15.83070078 48.12823484 -17.75 49.6875 C-20.90500949 52.26025452 -24.00951867 54.8698084 -27.0625 57.5625 C-30 60 -30 60 -32 60 C-32.24929646 55.4654891 -32.4295585 50.93504657 -32.54931641 46.39526367 C-32.59927231 44.85549395 -32.66727252 43.31619065 -32.75439453 41.77807617 C-33.45542929 29.07285215 -33.45542929 29.07285215 -29.97998047 24.12304688 C-27.43852451 21.81447334 -24.85966639 19.89494379 -22 18 C-20.73880032 16.99770076 -19.48497948 15.98597237 -18.2421875 14.9609375 C-17.12226458 14.09574784 -15.99990365 13.23370383 -14.875 12.375 C-9.75975428 8.41635966 -4.78670228 4.35560177 0 0 Z " fill="#D6281E" transform="translate(198,131)"/>
<path d="M0 0 C3.48509931 1.54444076 6.14322337 3.62475353 9.0625 6.0625 C10.04089844 6.87460937 11.01929688 7.68671875 12.02734375 8.5234375 C13.00832031 9.34070313 13.98929688 10.15796875 15 11 C16.7068266 12.39767536 18.41515467 13.79351922 20.125 15.1875 C22.0838908 16.79099204 24.04231082 18.39504239 26 20 C26.63744141 20.52255371 27.27488281 21.04510742 27.93164062 21.58349609 C35.35293027 27.67110974 42.75975323 33.77038954 50.0625 40 C54.58180831 43.85374377 59.19181724 47.51171055 64 51 C67.91728886 49.3481312 70.8908047 46.69570021 74.0625 43.9375 C75.22723999 42.93807371 76.3926144 41.93938636 77.55859375 40.94140625 C78.13851074 40.44398926 78.71842773 39.94657227 79.31591797 39.43408203 C84.35770729 35.14074042 89.53356371 31.00488096 94.671875 26.828125 C99.1123813 23.20898402 103.52845778 19.56610172 107.89331055 15.85620117 C110.07305095 14.00356529 112.25842271 12.15766472 114.4453125 10.31347656 C115.93578427 9.05425261 117.42113713 7.78897723 118.90625 6.5234375 C120.22109375 5.42902344 120.22109375 5.42902344 121.5625 4.3125 C122.32691406 3.66925781 123.09132813 3.02601563 123.87890625 2.36328125 C126 1 126 1 130 1 C132.23721768 2.4904828 134.24637465 3.98656375 136.3125 5.6875 C136.91481445 6.17138184 137.51712891 6.65526367 138.13769531 7.15380859 C143.60499575 11.58420722 148.9248489 16.19025968 154.20043945 20.84643555 C157.38234966 23.7315901 157.38234966 23.7315901 161 26 C161 26.66 161 27.32 161 28 C114.97432873 52.91145276 64.73196263 62.13820376 13.625 47.44140625 C-1.9284744 42.72356273 -17.59272163 36.27405299 -31 27 C-21.44497479 17.12647395 -10.71654675 8.56169354 0 0 Z " fill="#00A8E5" transform="translate(197,438)"/>
<path d="M0 0 C7.92 0 15.84 0 24 0 C30.75 11.25 30.75 11.25 32.9921875 15.3515625 C33.46914062 16.22167969 33.94609375 17.09179688 34.4375 17.98828125 C34.911875 18.85839844 35.38625 19.72851562 35.875 20.625 C36.37257812 21.53378906 36.87015625 22.44257813 37.3828125 23.37890625 C38.59033851 25.58496338 39.79604222 27.79199413 41 30 C41.556875 29.00742187 42.11375 28.01484375 42.6875 26.9921875 C47.75245161 17.97195187 52.8573856 8.97619967 58 0 C66.25 0 74.5 0 83 0 C83 16.5 83 33 83 50 C77.39 50 71.78 50 66 50 C65.67 37.79 65.34 25.58 65 13 C58.27520087 25.30332568 51.56212612 37.60916185 45 50 C41.7 50 38.4 50 35 50 C27.85718575 37.40988801 20.91479958 24.7168728 14 12 C13.67 24.54 13.34 37.08 13 50 C8.71 50 4.42 50 0 50 C0 33.5 0 17 0 0 Z " fill="#271569" transform="translate(181,0)"/>
<path d="M0 0 C5.05118181 1.52687815 8.2902004 4.60404954 12.125 8.0625 C13.3551663 9.15935429 14.58698246 10.25436056 15.8203125 11.34765625 C16.46347412 11.93893311 17.10663574 12.53020996 17.76928711 13.1394043 C20.02998857 15.11109898 20.02998857 15.11109898 22.92016602 16.82348633 C30.30934741 21.7327329 30.30934741 21.7327329 31.56494141 25.85458374 C32.3616292 31.08518507 32.00500038 36.30441055 31.6875 41.5625 C31.63223551 43.15933578 31.58206064 44.75635625 31.53710938 46.35351562 C31.41672835 50.24029059 31.2275244 54.1180837 31 58 C25.77706858 54.17081404 20.75842322 50.18991909 15.875 45.9375 C14.14093338 44.43605207 12.40622622 42.9357336 10.66308594 41.44482422 C9.54934444 40.47724903 8.45344141 39.48877217 7.37597656 38.48095703 C4.5651148 35.79108914 4.5651148 35.79108914 0.91796875 34.95703125 C-1.55072425 36.29947734 -3.54207114 37.86540108 -5.6875 39.6875 C-6.64011719 40.48542969 -7.59273437 41.28335938 -8.57421875 42.10546875 C-9.10837402 42.55712402 -9.6425293 43.0087793 -10.19287109 43.47412109 C-13.77909226 46.5022057 -17.38884047 49.50174545 -21 52.5 C-22.11314575 53.43525513 -22.11314575 53.43525513 -23.2487793 54.3894043 C-23.95043213 54.97246338 -24.65208496 55.55552246 -25.375 56.15625 C-26.31472656 56.94225586 -26.31472656 56.94225586 -27.2734375 57.74414062 C-29 59 -29 59 -32 60 C-32.24929646 55.4654891 -32.4295585 50.93504657 -32.54931641 46.39526367 C-32.59927231 44.85549395 -32.66727252 43.31619065 -32.75439453 41.77807617 C-33.45732341 29.03852392 -33.45732341 29.03852392 -29.90087891 24.0637207 C-27.37451337 21.77819546 -24.83532064 19.88200304 -22 18 C-20.36500243 16.69997531 -18.73848426 15.389131 -17.125 14.0625 C-16.31546875 13.42441406 -15.5059375 12.78632813 -14.671875 12.12890625 C-9.70873681 8.17435901 -4.86251575 4.07716097 0 0 Z " fill="#029340" transform="translate(198,225)"/>
<path d="M0 0 C5.07864797 1.5284312 8.3341601 4.65082169 12.1875 8.125 C13.5156034 9.30097578 14.84503407 10.47545428 16.17578125 11.6484375 C16.82369629 12.22045898 17.47161133 12.79248047 18.13916016 13.38183594 C21.42032708 16.23509943 24.82292142 18.92361484 28.2421875 21.609375 C30 23 30 23 31 24 C31.08843793 26.44830426 31.11528752 28.86820599 31.09765625 31.31640625 C31.0962413 32.04746078 31.09482635 32.77851532 31.09336853 33.53172302 C31.08775408 35.87535632 31.07519922 38.21889539 31.0625 40.5625 C31.05748686 42.14778508 31.05292363 43.73307166 31.04882812 45.31835938 C31.03777997 49.2122761 31.02050572 53.10612205 31 57 C27.11253982 55.17361342 24.09549638 52.67769969 20.875 49.875 C19.71817957 48.88456146 18.56061939 47.89498634 17.40234375 46.90625 C16.82983887 46.41640625 16.25733398 45.9265625 15.66748047 45.421875 C13.27620305 43.38281209 10.8673346 41.36796984 8.4375 39.375 C7.67308594 38.74335938 6.90867188 38.11171875 6.12109375 37.4609375 C3.30863304 35.44743972 3.30863304 35.44743972 0 35 C-2.15187972 36.50815502 -3.95648197 37.98210221 -5.875 39.75 C-7.02392125 40.7680231 -8.17504144 41.78356884 -9.328125 42.796875 C-9.92560547 43.32474609 -10.52308594 43.85261719 -11.13867188 44.39648438 C-14.78282492 47.5358859 -18.6091198 50.44594362 -22.41748047 53.38183594 C-24.64412495 55.10814714 -26.80058501 56.79619261 -28.7734375 58.8125 C-30 60 -30 60 -32 60 C-32.24929646 55.4654891 -32.4295585 50.93504657 -32.54931641 46.39526367 C-32.59927231 44.85549395 -32.66727252 43.31619065 -32.75439453 41.77807617 C-33.45732341 29.03852392 -33.45732341 29.03852392 -29.90087891 24.0637207 C-27.37451337 21.77819546 -24.83532064 19.88200304 -22 18 C-20.36500243 16.69997531 -18.73848426 15.389131 -17.125 14.0625 C-16.31546875 13.42441406 -15.5059375 12.78632813 -14.671875 12.12890625 C-9.70873681 8.17435901 -4.86251575 4.07716097 0 0 Z " fill="#029340" transform="translate(198,178)"/>
<path d="M0 0 C4.83182856 1.51107747 7.92545671 4.25917181 11.625 7.5625 C12.85975512 8.64428241 14.09544452 9.72499928 15.33203125 10.8046875 C15.9451416 11.3419043 16.55825195 11.87912109 17.18994141 12.43261719 C20.72109277 15.4903447 24.35919893 18.41511738 27.98828125 21.35546875 C30 23 30 23 31 24 C31.08843793 26.44830426 31.11528752 28.86820599 31.09765625 31.31640625 C31.0962413 32.04746078 31.09482635 32.77851532 31.09336853 33.53172302 C31.08775408 35.87535632 31.07519922 38.21889539 31.0625 40.5625 C31.05748686 42.14778508 31.05292363 43.73307166 31.04882812 45.31835938 C31.03777997 49.2122761 31.02050572 53.10612205 31 57 C27.13992533 55.1840115 24.1384595 52.71929188 20.9375 49.9375 C19.7815266 48.95149854 18.62527163 47.96582711 17.46875 46.98046875 C15.2490771 45.0790396 13.04331297 43.16289885 10.84375 41.23828125 C9.8846875 40.41714844 8.925625 39.59601563 7.9375 38.75 C7.08027344 38.00234375 6.22304687 37.2546875 5.33984375 36.484375 C3.18143214 34.81850693 3.18143214 34.81850693 1.0078125 35.015625 C-1.69707033 36.34175432 -3.76439328 38.05050152 -6.0625 40 C-7.51076172 41.21623047 -7.51076172 41.21623047 -8.98828125 42.45703125 C-9.98214844 43.29621094 -10.97601563 44.13539063 -12 45 C-13.91411335 46.56562685 -15.83070078 48.12823484 -17.75 49.6875 C-20.90500949 52.26025452 -24.00951867 54.8698084 -27.0625 57.5625 C-30 60 -30 60 -32 60 C-32.24929646 55.4654891 -32.4295585 50.93504657 -32.54931641 46.39526367 C-32.59927231 44.85549395 -32.66727252 43.31619065 -32.75439453 41.77807617 C-33.45542929 29.07285215 -33.45542929 29.07285215 -29.97998047 24.12304688 C-27.43852451 21.81447334 -24.85966639 19.89494379 -22 18 C-20.73880032 16.99770076 -19.48497948 15.98597237 -18.2421875 14.9609375 C-17.12226458 14.09574784 -15.99990365 13.23370383 -14.875 12.375 C-9.75975428 8.41635966 -4.78670228 4.35560177 0 0 Z " fill="#029340" transform="translate(198,131)"/>
<path d="M0 0 C3.91726844 1.65186018 6.89085376 4.30424004 10.0625 7.0625 C11.21941456 8.05543079 12.3769778 9.04760623 13.53515625 10.0390625 C14.40358154 10.78397949 14.40358154 10.78397949 15.28955078 11.54394531 C22.67327988 17.97514193 22.67327988 17.97514193 30.62182617 23.6340332 C33 26 33 26 33.56762695 29.57519531 C33.56683996 30.99308502 33.53885412 32.41113727 33.48828125 33.828125 C33.48120651 34.57713074 33.47413177 35.32613647 33.46684265 36.09783936 C33.43892138 38.48292237 33.37619535 40.86563056 33.3125 43.25 C33.28741382 44.86975768 33.2646012 46.48955228 33.24414062 48.109375 C33.18910325 52.07382739 33.10285322 56.03651153 33 60 C28.06183493 56.3639303 23.27056584 52.62710942 18.625 48.625 C17.50445229 47.67383551 16.38335224 46.72332137 15.26171875 45.7734375 C13.19250751 44.0179277 11.13466262 42.25166272 9.08203125 40.4765625 C7.77298828 39.37441406 7.77298828 39.37441406 6.4375 38.25 C5.67308594 37.59515625 4.90867187 36.9403125 4.12109375 36.265625 C2.12724633 34.77581824 2.12724633 34.77581824 0.05908203 35.27050781 C-3.39333504 36.49363115 -5.87123289 39.09356967 -8.5625 41.5 C-9.80782864 42.5894169 -11.05393239 43.67794834 -12.30078125 44.765625 C-12.92033691 45.30896484 -13.53989258 45.85230469 -14.17822266 46.41210938 C-16.83795115 48.73037179 -19.53444809 50.99720396 -22.25 53.25 C-23.12140625 53.97703125 -23.9928125 54.7040625 -24.890625 55.453125 C-27 57 -27 57 -29 57 C-29.24929646 52.4654891 -29.4295585 47.93504657 -29.54931641 43.39526367 C-29.59927231 41.85549395 -29.66727252 40.31619065 -29.75439453 38.77807617 C-30.45722963 26.0402235 -30.45722963 26.0402235 -26.9074707 21.0703125 C-24.37926355 18.78359102 -21.83417934 16.88780537 -19 15 C-17.30207565 13.63789348 -15.6130591 12.26452616 -13.9375 10.875 C-12.29519295 9.57885275 -10.64935131 8.28717148 -9 7 C-7.69869141 5.98292969 -7.69869141 5.98292969 -6.37109375 4.9453125 C-4.25058008 3.2927056 -2.12709049 1.64412791 0 0 Z " fill="#029340" transform="translate(326,225)"/>
<path d="M0 0 C3.85331115 1.63166525 6.76039435 4.21475772 9.875 6.9375 C15.29830373 11.61054742 20.84582621 16.08708598 26.50537109 20.47045898 C28.77892448 22.23510081 30.96246332 23.96246332 33 26 C33.17502995 28.58103306 33.23162279 31.05308163 33.1953125 33.6328125 C33.1924826 34.38464813 33.18965271 35.13648376 33.18673706 35.91110229 C33.17552874 38.31589578 33.15042352 40.72031881 33.125 43.125 C33.11497102 44.75390088 33.10584503 46.38280758 33.09765625 48.01171875 C33.07558735 52.00795556 33.04105351 56.00391494 33 60 C27.83431947 56.21429053 22.88337532 52.27647014 18.0625 48.0625 C15.71168705 46.03775129 13.35603731 44.01866557 11 42 C9.63294922 40.82824219 9.63294922 40.82824219 8.23828125 39.6328125 C7.06845703 38.66988281 7.06845703 38.66988281 5.875 37.6875 C5.21242188 37.13449219 4.54984375 36.58148438 3.8671875 36.01171875 C2.06489484 34.79338763 2.06489484 34.79338763 0.07495117 35.28637695 C-3.39515767 36.47982655 -5.86781724 39.09051553 -8.5625 41.5 C-9.80782864 42.5894169 -11.05393239 43.67794834 -12.30078125 44.765625 C-12.92033691 45.30896484 -13.53989258 45.85230469 -14.17822266 46.41210938 C-16.83795115 48.73037179 -19.53444809 50.99720396 -22.25 53.25 C-23.12140625 53.97703125 -23.9928125 54.7040625 -24.890625 55.453125 C-27 57 -27 57 -29 57 C-29.24929646 52.4654891 -29.4295585 47.93504657 -29.54931641 43.39526367 C-29.59927231 41.85549395 -29.66727252 40.31619065 -29.75439453 38.77807617 C-30.45532589 26.07472614 -30.45532589 26.07472614 -26.98657227 21.12963867 C-24.44329196 18.81987312 -21.85931439 16.89948406 -19 15 C-17.70314246 13.96309952 -16.41418249 12.91617063 -15.13671875 11.85546875 C-13.98991107 10.96236825 -12.84025484 10.072911 -11.6875 9.1875 C-10.52460939 8.28532404 -9.36184662 7.38298327 -8.19921875 6.48046875 C-7.65958496 6.0632959 -7.11995117 5.64612305 -6.56396484 5.21630859 C-4.3575937 3.50039523 -2.17735432 1.7525047 0 0 Z " fill="#029340" transform="translate(326,178)"/>
<path d="M0 0 C3.85331115 1.63166525 6.76039435 4.21475772 9.875 6.9375 C15.29830373 11.61054742 20.84582621 16.08708598 26.50537109 20.47045898 C28.77892448 22.23510081 30.96246332 23.96246332 33 26 C33.17502995 28.58103306 33.23162279 31.05308163 33.1953125 33.6328125 C33.1924826 34.38464813 33.18965271 35.13648376 33.18673706 35.91110229 C33.17552874 38.31589578 33.15042352 40.72031881 33.125 43.125 C33.11497102 44.75390088 33.10584503 46.38280758 33.09765625 48.01171875 C33.07558735 52.00795556 33.04105351 56.00391494 33 60 C27.83431947 56.21429053 22.88337532 52.27647014 18.0625 48.0625 C15.71168705 46.03775129 13.35603731 44.01866557 11 42 C9.63294922 40.82824219 9.63294922 40.82824219 8.23828125 39.6328125 C7.06845703 38.66988281 7.06845703 38.66988281 5.875 37.6875 C5.21242188 37.13449219 4.54984375 36.58148438 3.8671875 36.01171875 C2.08086872 34.84833692 2.08086872 34.84833692 0.13671875 35.01953125 C-3.03605524 36.47541109 -5.47236663 38.70798936 -8.0625 41 C-9.2168794 41.99805377 -10.37183762 42.99543842 -11.52734375 43.9921875 C-12.10597168 44.49459961 -12.68459961 44.99701172 -13.28076172 45.51464844 C-15.86923832 47.75098636 -18.49044956 49.94298885 -21.125 52.125 C-21.99382812 52.84945312 -22.86265625 53.57390625 -23.7578125 54.3203125 C-26 56 -26 56 -29 57 C-29.24929646 52.4654891 -29.4295585 47.93504657 -29.54931641 43.39526367 C-29.59927231 41.85549395 -29.66727252 40.31619065 -29.75439453 38.77807617 C-30.4569448 26.04538575 -30.4569448 26.04538575 -26.92724609 21.09008789 C-24.39832362 18.80414032 -21.83689184 16.88430939 -19 15 C-17.95324738 14.13649575 -16.91626661 13.26069673 -15.8984375 12.36328125 C-10.68234595 8.12419756 -5.42766773 3.96577441 0 0 Z " fill="#029340" transform="translate(326,131)"/>
<path d="M0 0 C5.28 0 10.56 0 16 0 C16 6.93 16 13.86 16 21 C26.23 21 36.46 21 47 21 C47 14.07 47 7.14 47 0 C52.28 0 57.56 0 63 0 C63 16.83 63 33.66 63 51 C57.72 51 52.44 51 47 51 C47 43.74 47 36.48 47 29 C36.77 29 26.54 29 16 29 C16 36.26 16 43.52 16 51 C10.72 51 5.44 51 0 51 C0 34.17 0 17.34 0 0 Z " fill="#271569" transform="translate(357,0)"/>
<path d="M0 0 C1.3428122 0.18765835 2.68478158 0.38234114 4.0234375 0.59765625 C4.40975342 1.30035645 4.79606934 2.00305664 5.1940918 2.72705078 C7.02955238 6.06085206 8.86873447 9.39257739 10.7109375 12.72265625 C11.04513702 13.32680359 11.37933655 13.93095093 11.72366333 14.55340576 C17.04097989 24.15214224 22.51368937 33.64561003 28.16088867 43.05517578 C28.92622925 44.33303955 28.92622925 44.33303955 29.70703125 45.63671875 C30.15618896 46.38131348 30.60534668 47.1259082 31.06811523 47.89306641 C32.0234375 49.59765625 32.0234375 49.59765625 32.0234375 50.59765625 C29.14212993 50.86947772 26.28640361 51.06594491 23.3984375 51.22265625 C22.59019531 51.30644531 21.78195312 51.39023437 20.94921875 51.4765625 C18.31862974 51.58349701 16.48862999 51.55271239 14.0234375 50.59765625 C12.67431641 48.36669922 12.67431641 48.36669922 11.4609375 45.62890625 C10.16732977 42.80835967 10.16732977 42.80835967 8.0234375 40.59765625 C2.57172667 39.15294903 -2.747621 39.33161541 -8.3515625 39.47265625 C-9.86588641 39.47459977 -11.3802232 39.47204072 -12.89453125 39.46484375 C-16.59012519 39.45704529 -20.28184422 39.5106993 -23.9765625 39.59765625 C-24.2446875 40.29890625 -24.5128125 41.00015625 -24.7890625 41.72265625 C-26.03783765 44.74600661 -27.51368268 47.67189661 -28.9765625 50.59765625 C-33.9265625 50.59765625 -38.8765625 50.59765625 -43.9765625 50.59765625 C-43.10515625 49.00179687 -42.23375 47.4059375 -41.3359375 45.76171875 C-38.77646695 41.07035626 -36.23007025 36.37215926 -33.69335938 31.66845703 C-32.68464103 29.81455091 -31.66443587 27.96686342 -30.63476562 26.12451172 C-28.11559098 21.61213555 -25.72686546 17.14208657 -23.6796875 12.39453125 C-18.21606689 0.4229531 -13.05102241 -1.37080194 0 0 Z M-7.9765625 11.59765625 C-12.2685474 17.97431953 -15.6040036 24.69567524 -18.9765625 31.59765625 C-11.7165625 31.59765625 -4.4565625 31.59765625 3.0234375 31.59765625 C1.77787878 28.48375944 0.64318868 25.7310657 -0.921875 22.828125 C-1.45361328 21.8371582 -1.45361328 21.8371582 -1.99609375 20.82617188 C-2.36089844 20.15263672 -2.72570312 19.47910156 -3.1015625 18.78515625 C-3.47410156 18.09228516 -3.84664063 17.39941406 -4.23046875 16.68554688 C-5.14346627 14.98830789 -6.05968966 13.29280487 -6.9765625 11.59765625 C-7.3065625 11.59765625 -7.6365625 11.59765625 -7.9765625 11.59765625 Z " fill="#271569" transform="translate(315.9765625,-0.59765625)"/>
<path d="M0 0 C0.89976563 -0.020625 1.79953125 -0.04125 2.7265625 -0.0625 C11.98057548 -0.11568398 19.98131466 1.7329313 27.24609375 7.6328125 C29.55076385 9.92090224 30.79251103 12.20549979 31.875 15.25 C31.875 16.24 31.875 17.23 31.875 18.25 C26.925 18.58 21.975 18.91 16.875 19.25 C16.33875 18.156875 15.8025 17.06375 15.25 15.9375 C13.00052012 12.10562738 11.24799942 10.57751768 6.875 9.25 C1.36027079 8.63640009 -4.12738256 8.30187645 -9.1875 10.875 C-12.64939412 13.67397823 -13.84802479 14.96837725 -15.125 19.25 C-15.73207512 25.20692461 -15.99425753 30.38270605 -13.4375 35.875 C-9.00492609 40.42737321 -5.08311483 42.02245271 1.125 42.5 C5.39514663 42.21532356 9.25315322 41.62473665 12.875 39.25 C13.45378906 38.2290625 14.03257813 37.208125 14.62890625 36.15625 C16.875 33.25 16.875 33.25 20.546875 32.6640625 C21.9074902 32.70369207 23.26749197 32.77491907 24.625 32.875 C25.32238281 32.90207031 26.01976562 32.92914063 26.73828125 32.95703125 C28.45185705 33.02745217 30.16383302 33.13507087 31.875 33.25 C31.18322814 38.47833888 29.88270913 41.74696535 25.875 45.25 C17.97037199 50.32089344 9.79105116 51.59562473 0.5625 51.5625 C-0.32373047 51.57861328 -1.20996094 51.59472656 -2.12304688 51.61132812 C-11.10571884 51.61788004 -19.27469691 49.80540736 -26.3671875 44.0625 C-31.22613475 39.0523855 -33.83433445 32.95598573 -34.375 26.0625 C-33.96002743 19.73416824 -32.29315403 13.4730035 -27.9140625 8.6640625 C-19.30833417 1.86215496 -10.56953549 0.05904768 0 0 Z " fill="#271569" transform="translate(104.125,-0.25)"/>
<path d="M0 0 C5.28 0 10.56 0 16 0 C16 16.83 16 33.66 16 51 C10.72 51 5.44 51 0 51 C0 34.17 0 17.34 0 0 Z " fill="#271669" transform="translate(437,0)"/>
<path d="M0 0 C5.28 0 10.56 0 16 0 C16 16.83 16 33.66 16 51 C10.72 51 5.44 51 0 51 C0 34.17 0 17.34 0 0 Z " fill="#271669" transform="translate(147,0)"/>
<path d="M0 0 C4.12644566 1.04602515 6.88536584 3.42442834 9.83203125 6.37109375 C11.49552346 9.5132457 11.62540536 10.95371098 10.95703125 14.49609375 C8.9391388 17.78391319 6.73893053 20.81546275 3.95703125 23.49609375 C-0.39815049 23.49609375 -2.50215052 20.81368485 -5.60546875 18.05859375 C-9.56143287 14.4020908 -9.56143287 14.4020908 -14.04296875 11.49609375 C-11.02890789 5.12994651 -7.76813632 -0.72779862 0 0 Z " fill="#FDF6F0" transform="translate(462.04296875,459.50390625)"/>
<path d="M0 0 C2.475 0.495 2.475 0.495 5 1 C5.33 4.96 5.66 8.92 6 13 C7.65 9.7 9.3 6.4 11 3 C13.97 3.495 13.97 3.495 17 4 C17.33 8.29 17.66 12.58 18 17 C19.98 13.37 21.96 9.74 24 6 C25.32 6.33 26.64 6.66 28 7 C26.56347895 11.91441412 24.45840385 16.00238358 21.875 20.375 C21.50246094 21.01566406 21.12992188 21.65632812 20.74609375 22.31640625 C19.83565998 23.88048477 18.91851809 25.44065534 18 27 C16.35 26.67 14.7 26.34 13 26 C12.67 21.38 12.34 16.76 12 12 C9.69 15.96 7.38 19.92 5 24 C3.35 23.67 1.7 23.34 0 23 C0 15.41 0 7.82 0 0 Z " fill="#FDF4ED" transform="translate(188,543)"/>
<path d="M0 0 C5.11906974 4.63915695 9.34731634 10.14482966 13 16 C13 16.99 13 17.98 13 19 C12.01 19.33 11.02 19.66 10 20 C7.36 16.37 4.72 12.74 2 9 C3.65 13.62 5.3 18.24 7 23 C5.35 23.66 3.7 24.32 2 25 C-1.3 22.03 -4.6 19.06 -8 16 C-6.5459375 18.10375 -6.5459375 18.10375 -5.0625 20.25 C-3.05177694 23.15913124 -1.63389235 25.50155614 -1 29 C-1.99 29.33 -2.98 29.66 -4 30 C-5.63236654 27.94297722 -7.25587005 25.87990147 -8.875 23.8125 C-9.56529297 22.9452832 -9.56529297 22.9452832 -10.26953125 22.06054688 C-12.78800269 18.83033351 -14.70744611 15.9445179 -16 12 C-14.75 10.4375 -14.75 10.4375 -13 9 C-9.55764654 9.40841482 -7.43652404 10.95805617 -4.75 13.0625 C-4.04359375 13.61035156 -3.3371875 14.15820312 -2.609375 14.72265625 C-2.07828125 15.14417969 -1.5471875 15.56570313 -1 16 C-1.22816406 15.40832031 -1.45632813 14.81664062 -1.69140625 14.20703125 C-4.68621793 5.97465655 -4.68621793 5.97465655 -3 2 C-2.01 1.34 -1.02 0.68 0 0 Z " fill="#FDF7F2" transform="translate(413,502)"/>
<path d="M0 0 C1.875 1.1875 1.875 1.1875 3 3 C3 4.65 3 6.3 3 8 C6.63 8 10.26 8 14 8 C13.34 9.32 12.68 10.64 12 12 C9.3984375 12.609375 9.3984375 12.609375 6.375 12.75 C5.37210937 12.80671875 4.36921875 12.8634375 3.3359375 12.921875 C2.17964844 12.96054687 2.17964844 12.96054687 1 13 C1 14.32 1 15.64 1 17 C3.42672567 18.78969026 3.42672567 18.78969026 6 20 C5.34 21.32 4.68 22.64 4 24 C-0.55564061 22.41467191 -4.31475769 20.00996919 -8.3125 17.375 C-8.95767578 16.95476562 -9.60285156 16.53453125 -10.26757812 16.1015625 C-11.84760724 15.07161759 -13.42416047 14.03634372 -15 13 C-7.62976713 -1.1363483 -7.62976713 -1.1363483 0 0 Z " fill="#FDF8F3" transform="translate(481,434)"/>
<path d="M0 0 C1.32 0 2.64 0 4 0 C6.00236413 7.32940833 7.51298949 14.40935336 8 22 C5.80078125 22.28125 5.80078125 22.28125 3 22 C0.54296875 20.03125 0.54296875 20.03125 -1.8125 17.5 C-2.60269531 16.6646875 -3.39289063 15.829375 -4.20703125 14.96875 C-4.79871094 14.3190625 -5.39039063 13.669375 -6 13 C-5.67 16.63 -5.34 20.26 -5 24 C-6.32 24.33 -7.64 24.66 -9 25 C-11.00236413 17.67059167 -12.51298949 10.59064664 -13 3 C-10.80078125 2.6875 -10.80078125 2.6875 -8 3 C-5.54296875 5.1875 -5.54296875 5.1875 -3.1875 8 C-2.39730469 8.928125 -1.60710937 9.85625 -0.79296875 10.8125 C-0.20128906 11.534375 0.39039063 12.25625 1 13 C0.67 8.71 0.34 4.42 0 0 Z " fill="#FDF5EE" transform="translate(317,547)"/>
<path d="M0 0 C1.65 0 3.3 0 5 0 C7.01953125 2.625 7.01953125 2.625 8.8125 6 C9.41707031 7.11375 10.02164063 8.2275 10.64453125 9.375 C11.09183594 10.24125 11.53914062 11.1075 12 12 C13.66342837 10.33657163 13.36048097 8.2174291 13.5625 5.9375 C13.64628906 5.01839844 13.73007813 4.09929688 13.81640625 3.15234375 C13.87699219 2.44207031 13.93757812 1.73179687 14 1 C15.32 1 16.64 1 18 1 C17.67 8.26 17.34 15.52 17 23 C15.35 23 13.7 23 12 23 C9.69 18.71 7.38 14.42 5 10 C4.67 13.96 4.34 17.92 4 22 C2.35 22 0.7 22 -1 22 C-0.67 14.74 -0.34 7.48 0 0 Z " fill="#FDF5EE" transform="translate(237,553)"/>
<path d="M0 0 C2.475 0.99 2.475 0.99 5 2 C5.33 6.95 5.66 11.9 6 17 C7.98 13.7 9.96 10.4 12 7 C13.32 7.33 14.64 7.66 16 8 C14.40376856 12.39383706 12.21975667 16.28995807 9.875 20.3125 C9.50246094 20.95767578 9.12992188 21.60285156 8.74609375 22.26757812 C7.83367787 23.84675945 6.91724491 25.42361864 6 27 C4.35 26.67 2.7 26.34 1 26 C0.67 20.72 0.34 15.44 0 10 C-1.98 13.63 -3.96 17.26 -6 21 C-7.32 20.34 -8.64 19.68 -10 19 C-6.82976438 12.56442169 -3.65066187 6.17804317 0 0 Z " fill="#FDF7F1" transform="translate(131,517)"/>
<path d="M0 0 C2.93230193 1.32120828 4.98664899 2.74638197 7.234375 5.0390625 C7.80800781 5.61914062 8.38164062 6.19921875 8.97265625 6.796875 C9.55917969 7.40015625 10.14570313 8.0034375 10.75 8.625 C11.35199219 9.23601562 11.95398438 9.84703125 12.57421875 10.4765625 C14.05405305 11.97988624 15.52764676 13.48934856 17 15 C16.01 16.485 16.01 16.485 15 18 C9.63108121 17.50130596 4.30764827 16.97772468 -1 16 C1.64 18.64 4.28 21.28 7 24 C6.34 25.32 5.68 26.64 5 28 C-0.66129431 23.30233025 -5.85228904 18.25276628 -11 13 C-10.34 12.01 -9.68 11.02 -9 10 C-3.4325273 9.43189054 1.6420251 10.63924447 7 12 C6.41089844 11.46890625 5.82179688 10.9378125 5.21484375 10.390625 C4.46332031 9.68421875 3.71179688 8.9778125 2.9375 8.25 C2.18339844 7.55390625 1.42929687 6.8578125 0.65234375 6.140625 C-1 4 -1 4 -0.74609375 1.734375 C-0.49988281 1.16203125 -0.25367188 0.5896875 0 0 Z " fill="#FDF8F3" transform="translate(444,473)"/>
<path d="M0 0 C4.14840028 0.61394029 6.24310265 3.18627279 9.01171875 6.10546875 C9.81125977 6.90114258 9.81125977 6.90114258 10.62695312 7.71289062 C13.58047007 10.74070989 15.57353717 13.28227935 16.82421875 17.41796875 C15.07421875 18.10546875 15.07421875 18.10546875 12.82421875 18.41796875 C11.92703125 17.64453125 11.92703125 17.64453125 11.01171875 16.85546875 C10.28984375 16.38109375 9.56796875 15.90671875 8.82421875 15.41796875 C5.11126591 16.13311269 5.11126591 16.13311269 1.82421875 17.41796875 C1.82421875 19.39796875 1.82421875 21.37796875 1.82421875 23.41796875 C0.17421875 24.07796875 -1.47578125 24.73796875 -3.17578125 25.41796875 C-3.20465109 21.43881716 -3.22253531 17.45969222 -3.23828125 13.48046875 C-3.24666016 12.34416016 -3.25503906 11.20785156 -3.26367188 10.03710938 C-3.26689453 8.95751953 -3.27011719 7.87792969 -3.2734375 6.765625 C-3.27867432 5.76539307 -3.28391113 4.76516113 -3.28930664 3.73461914 C-3.13964114 0.68047736 -2.9743423 0.57137276 0 0 Z " fill="#FCF3EB" transform="translate(357.17578125,534.58203125)"/>
<path d="M0 0 C3.0603333 1.7655769 5.50587755 3.50587755 8 6 C8.125 8.625 8.125 8.625 8 11 C5.6875 10.8125 5.6875 10.8125 3 10 C2.505 9.154375 2.01 8.30875 1.5 7.4375 C0.7575 6.2309375 0.7575 6.2309375 0 5 C-2.5 4.25 -2.5 4.25 -5 5 C-6.99963019 6.43991037 -6.99963019 6.43991037 -8 9 C-8.23884872 11.72079845 -8.13709297 14.25814068 -8 17 C-5.36 17.66 -2.72 18.32 0 19 C0 18.01 0 17.02 0 16 C-1.32 15.67 -2.64 15.34 -4 15 C-3.67 13.68 -3.34 12.36 -3 11 C0.40312738 12.05875074 3.01353231 13.00902154 6 15 C4.125 20.75 4.125 20.75 3 23 C-6.68122385 23.86097841 -6.68122385 23.86097841 -10.5625 20.625 C-13.38849819 17.58161733 -13.91830242 16.8496548 -14.3125 12.75 C-13.87751667 7.5302001 -11.76284409 4.76284409 -8.125 1.125 C-5.1504334 -0.44977055 -3.33027272 -0.46623818 0 0 Z " fill="#FDF5EE" transform="translate(158,530)"/>
<path d="M0 0 C1.98 0.66 3.96 1.32 6 2 C6 9.59 6 17.18 6 25 C4.68 24.67 3.36 24.34 2 24 C2 22.02 2 20.04 2 18 C-1.3 17.67 -4.6 17.34 -8 17 C-8.33 17.66 -8.66 18.32 -9 19 C-10.65 18.67 -12.3 18.34 -14 18 C-11.86379908 14.16720222 -9.41913995 11.08750828 -6.4375 7.875 C-4.05245716 5.29805716 -1.95043516 2.92565274 0 0 Z " fill="#FDF4EC" transform="translate(177,539)"/>
<path d="M0 0 C-0.49783114 5.12766072 -3.06705922 8.65627037 -5.875 12.8125 C-6.54595703 13.85180664 -6.54595703 13.85180664 -7.23046875 14.91210938 C-8.40287756 16.66726416 -9.6942062 18.34168359 -11 20 C-11.99 20 -12.98 20 -14 20 C-15 17 -15 17 -14.375 14.0625 C-13.73730138 11.03897369 -13.73730138 11.03897369 -15.0625 8.625 C-16.98812279 6.69051806 -16.98812279 6.69051806 -20.1875 6.75 C-21.5796875 6.87375 -21.5796875 6.87375 -23 7 C-23.66 5.68 -24.32 4.36 -25 3 C-21.58892894 2.10211461 -18.17061196 1.23575688 -14.75 0.375 C-13.78191406 0.11976563 -12.81382813 -0.13546875 -11.81640625 -0.3984375 C-10.88183594 -0.63046875 -9.94726562 -0.8625 -8.984375 -1.1015625 C-8.12553711 -1.32150879 -7.26669922 -1.54145508 -6.38183594 -1.76806641 C-3.59550139 -2.03938845 -2.34085059 -1.46421626 0 0 Z " fill="#FDF6EF" transform="translate(59,447)"/>
<path d="M0 0 C0.72832031 0.14695312 1.45664063 0.29390625 2.20703125 0.4453125 C4.91946214 7.93162176 7.20703125 15.43073192 7.20703125 23.4453125 C5.55703125 23.1153125 3.90703125 22.7853125 2.20703125 22.4453125 C2.20703125 20.7953125 2.20703125 19.1453125 2.20703125 17.4453125 C-0.76296875 17.4453125 -3.73296875 17.4453125 -6.79296875 17.4453125 C-7.45296875 18.7653125 -8.11296875 20.0853125 -8.79296875 21.4453125 C-10.44296875 21.4453125 -12.09296875 21.4453125 -13.79296875 21.4453125 C-12.31647395 16.37627686 -10.13228551 12.09374208 -7.48046875 7.5703125 C-7.10212891 6.88195312 -6.72378906 6.19359375 -6.33398438 5.484375 C-3.44002152 0.54847895 -3.44002152 0.54847895 0 0 Z " fill="#FDF5EE" transform="translate(224.79296875,550.5546875)"/>
<path d="M0 0 C2.9375 1.8125 2.9375 1.8125 5 4 C5 4.99 5 5.98 5 7 C4.29875 6.855625 3.5975 6.71125 2.875 6.5625 C1.92625 6.376875 0.9775 6.19125 0 6 C-1.03125 5.7525 -2.0625 5.505 -3.125 5.25 C-5.92844564 4.74297757 -5.92844564 4.74297757 -7.875 6 C-9.59394628 9.05590449 -9.30668687 11.565107 -9 15 C-8.01 16.485 -8.01 16.485 -7 18 C-3.5 18.5 -3.5 18.5 0 18 C0.66 17.01 1.32 16.02 2 15 C0.35 15 -1.3 15 -3 15 C-3 13.68 -3 12.36 -3 11 C-0.03 11 2.94 11 6 11 C6 13.97 6 16.94 6 20 C0.97505315 23.01496811 -2.28200075 23.63533325 -8 23 C-10.8100346 21.20636089 -12.50940468 19.98119065 -14 17 C-14.61766523 11.52042702 -15.04431644 7.37410058 -11.625 2.875 C-7.49193867 -0.07718667 -5.12536642 -0.43435309 0 0 Z " fill="#FDF7F1" transform="translate(273,553)"/>
<path d="M0 0 C5.14092104 0.38931247 9.38460496 3.13884915 13.8125 5.5625 C14.60076172 5.98724609 15.38902344 6.41199219 16.20117188 6.84960938 C18.1373378 7.89396554 20.07005367 8.9442077 22 10 C21.01 11.485 21.01 11.485 20 13 C18.948125 12.7525 17.89625 12.505 16.8125 12.25 C12.94633751 11.6110158 12.94633751 11.6110158 10.0625 13.9375 C9.381875 14.618125 8.70125 15.29875 8 16 C8.33 17.98 8.66 19.96 9 22 C7.68 22.99 6.36 23.98 5 25 C3.79497901 21.75622826 2.61411218 18.50417311 1.4375 15.25 C1.09525391 14.32960938 0.75300781 13.40921875 0.40039062 12.4609375 C0.08134766 11.57148438 -0.23769531 10.68203125 -0.56640625 9.765625 C-0.86490479 8.94868164 -1.16340332 8.13173828 -1.47094727 7.29003906 C-2.05408196 4.76590274 -1.89030055 3.40924461 -1 1 C-0.67 0.67 -0.34 0.34 0 0 Z " fill="#FDF8F3" transform="translate(424,493)"/>
<path d="M0 0 C3.59593857 1.43837543 5.77066612 3.54133224 7.5 7 C7.539992 8.99960012 7.54346799 11.00047242 7.5 13 C5.52 13.99 5.52 13.99 3.5 15 C2.72678118 12.01758453 2.08803797 9.02419525 1.5 6 C0.51 5.67 -0.48 5.34 -1.5 5 C-1.335 5.825 -1.17 6.65 -1 7.5 C-0.42356478 11.53504654 -0.16605917 14.92592186 -0.5 19 C-2.125 21.0625 -2.125 21.0625 -4.5 22 C-8.35357453 22 -9.96241799 21.49399428 -12.8125 18.875 C-14.8475452 15.40788596 -15.5 13.02277646 -15.5 9 C-13.5625 6.5625 -13.5625 6.5625 -11.5 5 C-9.5 7 -9.5 7 -9.3046875 8.9453125 C-9.36979167 10.96354167 -9.43489583 12.98177083 -9.5 15 C-7.025 15.99 -7.025 15.99 -4.5 17 C-4.83 15.96875 -5.16 14.9375 -5.5 13.875 C-6.45050781 10.4655698 -6.97423097 7.5567323 -6.5 4 C-4.4930465 1.10106716 -3.58617539 0 0 0 Z " fill="#FCF3EB" transform="translate(41.5,424)"/>
<path d="M0 0 C1.65 0 3.3 0 5 0 C5.83267429 4.42062044 6.22091373 8.69013214 6.3125 13.1875 C6.34988281 14.39792969 6.38726562 15.60835937 6.42578125 16.85546875 C6 20 6 20 4.296875 21.89453125 C0.2922966 23.82190487 -3.67057837 23.80805986 -8 23 C-11.7917133 18.74868509 -12.18021635 13.82830694 -12.5625 8.3125 C-12.64628906 7.13300781 -12.73007812 5.95351563 -12.81640625 4.73828125 C-12.87699219 3.83464844 -12.93757813 2.93101562 -13 2 C-11.35 2 -9.7 2 -8 2 C-7.34 7.61 -6.68 13.22 -6 19 C-2.535 18.505 -2.535 18.505 1 18 C1.09706112 11.88514973 0.77040851 6.06696699 0 0 Z " fill="#FDF5EE" transform="translate(295,551)"/>
<path d="M0 0 C1.32 0.66 2.64 1.32 4 2 C1.33333333 6 -1.33333333 10 -4 14 C-4.16713569 16.62531524 -4.16713569 16.62531524 -4 19 C-2.35 19.33 -0.7 19.66 1 20 C3.97 16.04 6.94 12.08 10 8 C11.32 8.33 12.64 8.66 14 9 C13.41135171 12.89413483 11.53589895 15.12829602 9.0625 18.125 C8.35222656 18.99382813 7.64195313 19.86265625 6.91015625 20.7578125 C3.33371606 24.95592429 3.33371606 24.95592429 -0.3125 25.4375 C-4.87733731 24.89590913 -6.12388184 23.46826014 -9 20 C-9.33 19.67 -9.66 19.34 -10 19 C-9.72599486 13.31614972 -7.96299375 9.865438 -4.4375 5.5625 C-4.01275391 5.02173828 -3.58800781 4.48097656 -3.15039062 3.92382812 C-2.11254619 2.60611552 -1.05796301 1.3016151 0 0 Z " fill="#FDF7F2" transform="translate(107,500)"/>
<path d="M0 0 C0.54269531 0.26941406 1.08539063 0.53882813 1.64453125 0.81640625 C-0.19194354 5.15628616 -3.21990187 7.62567646 -6.67578125 10.71875 C-8.72347887 13.27599099 -8.69992719 14.621832 -8.35546875 17.81640625 C-6.1513484 18.76888135 -6.1513484 18.76888135 -3.35546875 18.81640625 C-1.1532472 17.22640823 0.56783789 15.77818876 2.45703125 13.87890625 C2.95912109 13.39744141 3.46121094 12.91597656 3.97851562 12.41992188 C5.21344302 11.23203933 6.43077413 10.02591204 7.64453125 8.81640625 C8.63453125 9.47640625 9.62453125 10.13640625 10.64453125 10.81640625 C9.25989181 13.94390032 7.64930702 16.05690475 5.20703125 18.44140625 C4.61019531 19.03179687 4.01335937 19.6221875 3.3984375 20.23046875 C0.71673508 22.65534889 -1.07096047 23.76809352 -4.66796875 24.37890625 C-9.21221645 23.68571592 -10.46815113 22.28399025 -13.38671875 18.93359375 C-14.82772691 15.78429365 -14.3918931 14.09773393 -13.35546875 10.81640625 C-11.62794158 8.60345822 -10.0406795 6.79908618 -8.04296875 4.87890625 C-7.55634766 4.37294922 -7.06972656 3.86699219 -6.56835938 3.34570312 C-2.94438533 -0.22949604 -2.94438533 -0.22949604 0 0 Z " fill="#FDF8F3" transform="translate(78.35546875,472.18359375)"/>
<path d="M0 0 C1.32 0.33 2.64 0.66 4 1 C4.125 8.625 4.125 8.625 3 12 C3.886875 11.67 4.77375 11.34 5.6875 11 C8.7473426 10.07627393 10.84973472 9.56246316 14 10 C14.99 11.485 14.99 11.485 16 13 C14.46279297 13.43699219 14.46279297 13.43699219 12.89453125 13.8828125 C11.53352937 14.29580617 10.17286979 14.70992903 8.8125 15.125 C8.13896484 15.31320312 7.46542969 15.50140625 6.77148438 15.6953125 C1.51567042 17.33615198 -0.8071728 19.52384226 -4 24 C-4.99 23.34 -5.98 22.68 -7 22 C-5.34042553 17.27659574 -5.34042553 17.27659574 -3.5 15.78125 C-1.20145244 13.05172477 -1.22908693 10.30542122 -0.8125 6.8125 C-0.65394531 5.54019531 -0.49539062 4.26789063 -0.33203125 2.95703125 C-0.22246094 1.98121094 -0.11289063 1.00539063 0 0 Z " fill="#FDF5EE" transform="translate(90,486)"/>
<path d="M0 0 C0.99 0 1.98 0 3 0 C3.33 1.32 3.66 2.64 4 4 C-1.94 8.95 -1.94 8.95 -8 14 C-6.27335947 17.8203825 -6.27335947 17.8203825 -4.3125 20.0625 C-3.879375 20.701875 -3.44625 21.34125 -3 22 C-3.33 22.99 -3.66 23.98 -4 25 C-7.67056937 23.52202738 -9.41085783 21.52384523 -11.75 18.375 C-12.67039063 17.14910156 -12.67039063 17.14910156 -13.609375 15.8984375 C-14.29773437 14.95871094 -14.29773437 14.95871094 -15 14 C-12.25724874 10.34299832 -9.42374516 7.54511442 -5.8125 4.75 C-2.80494042 2.49183409 -2.80494042 2.49183409 0 0 Z " fill="#FDF5EE" transform="translate(64,458)"/>
<path d="M0 0 C0.33 0.99 0.66 1.98 1 3 C-0.65 4.32 -2.3 5.64 -4 7 C-3.4946875 7.98742187 -2.989375 8.97484375 -2.46875 9.9921875 C-1.81228987 11.28635176 -1.15605133 12.58062845 -0.5 13.875 C0.00080078 14.85146484 0.00080078 14.85146484 0.51171875 15.84765625 C3 20.7734375 3 20.7734375 3 23 C1.68 23.33 0.36 23.66 -1 24 C-2.17441535 21.89983377 -3.33964012 19.79541245 -4.5 17.6875 C-4.83386719 17.09259766 -5.16773438 16.49769531 -5.51171875 15.88476562 C-7.06825114 13.04171156 -8 11.29339012 -8 8 C-11.465 9.485 -11.465 9.485 -15 11 C-15.33 9.68 -15.66 8.36 -16 7 C-13.71070947 5.82845707 -11.41881638 4.66261926 -9.125 3.5 C-8.47402344 3.16613281 -7.82304687 2.83226562 -7.15234375 2.48828125 C-2.2265625 0 -2.2265625 0 0 0 Z " fill="#FDF9F5" transform="translate(381,524)"/>
<path d="M0 0 C1.32 0 2.64 0 4 0 C9.08383511 13.41315424 9.08383511 13.41315424 8 21 C5.45553241 23.39906945 3.79855926 23.88592011 0.375 24.375 C-2 24 -2 24 -3.8125 22.6875 C-5 21 -5 21 -5 18 C-3.68 17.67 -2.36 17.34 -1 17 C-0.67 17.66 -0.34 18.32 0 19 C0.99 19 1.98 19 3 19 C2.41632611 12.69632197 0.95928381 7.01339937 -1 1 C-0.67 0.67 -0.34 0.34 0 0 Z " fill="#FDF5ED" transform="translate(341,540)"/>
<path d="M0 0 C2.61117694 2.1364175 4.46974242 4.05731987 6.125 7 C6 9 6 9 3.5625 11.75 C2.2940625 12.86375 2.2940625 12.86375 1 14 C-2.3 11.36 -5.6 8.72 -9 6 C-6.75456678 0.38641694 -5.88505996 -0.82117116 0 0 Z " fill="#E67D20" transform="translate(463,464)"/>
<path d="M0 0 C4.43170173 1.51896368 8.03024076 3.92639809 11.8125 6.625 C12.40998047 7.04523438 13.00746094 7.46546875 13.62304688 7.8984375 C15.08520565 8.92779728 16.54304899 9.9632823 18 11 C17.67 12.65 17.34 14.3 17 16 C12.87235084 14.18633597 9.37940795 11.50853382 5.75 8.875 C4.77546875 8.17310547 4.77546875 8.17310547 3.78125 7.45703125 C2.18564517 6.30725718 0.59256975 5.15397434 -1 4 C-0.67 2.68 -0.34 1.36 0 0 Z " fill="#FDF6F1" transform="translate(463,450)"/>
<path d="M0 0 C4.7871428 0.57665391 8.25128824 2.64082996 12.3125 5.0625 C12.95767578 5.43955078 13.60285156 5.81660156 14.26757812 6.20507812 C15.84878152 7.13037493 17.4249146 8.06432681 19 9 C18.67 10.65 18.34 12.3 18 14 C11.56442169 10.82976438 5.17804317 7.65066187 -1 4 C-0.67 2.68 -0.34 1.36 0 0 Z " fill="#FDF6F0" transform="translate(479,425)"/>
<path d="M0 0 C0.99 0 1.98 0 3 0 C4.25854492 1.52880859 4.25854492 1.52880859 5.48046875 3.6484375 C5.92197266 4.40640625 6.36347656 5.164375 6.81835938 5.9453125 C7.49608398 7.14800781 7.49608398 7.14800781 8.1875 8.375 C8.65091797 9.1690625 9.11433594 9.963125 9.59179688 10.78125 C13 16.70419505 13 16.70419505 13 19 C11.68 19.33 10.36 19.66 9 20 C6.97158654 17.01823222 4.9748418 14.01751984 3 11 C2.34451172 10.00226562 2.34451172 10.00226562 1.67578125 8.984375 C-1.05856812 4.57103917 -1.05856812 4.57103917 -0.75 1.5625 C-0.5025 1.046875 -0.255 0.53125 0 0 Z " fill="#FDF7F1" transform="translate(384,521)"/>
<path d="M0 0 C1.32 0.33 2.64 0.66 4 1 C3.45276317 4.37462715 2.9451 6.08235 1 9 C-0.32 8.67 -1.64 8.34 -3 8 C-3 3.73173127 -2.62386487 3.06117568 0 0 Z " fill="#E78228" transform="translate(476,438)"/>
<path d="M0 0 C1.32 0.33 2.64 0.66 4 1 C5.125 5.75 5.125 5.75 4 8 C3.34 8 2.68 8 2 8 C1.67 9.32 1.34 10.64 1 12 C0.67 8.04 0.34 4.08 0 0 Z " fill="#E8852E" transform="translate(40,429)"/>
<path d="M0 0 C2.04119788 1.61594832 4.04072937 3.2856382 6 5 C6 5.66 6 6.32 6 7 C4.02 7.33 2.04 7.66 0 8 C0 5.36 0 2.72 0 0 Z " fill="#EB9346" transform="translate(358,540)"/>
<path d="M0 0 C3.465 1.98 3.465 1.98 7 4 C6.01 5.485 6.01 5.485 5 7 C4.01 7 3.02 7 2 7 C0.5393715 4.35261084 0 3.10551666 0 0 Z " fill="#E98935" transform="translate(427,498)"/>
<path d="M0 0 C-1.32 1.65 -2.64 3.3 -4 5 C-4.99 4.67 -5.98 4.34 -7 4 C-7.33 3.01 -7.66 2.02 -8 1 C-4.93251126 -0.86240388 -3.40254489 -1.2151946 0 0 Z " fill="#E98833" transform="translate(54,451)"/>
<path d="M0 0 C0.66 0.33 1.32 0.66 2 1 C2 2.98 2 4.96 2 7 C0.35 7 -1.3 7 -3 7 C-1.125 2.25 -1.125 2.25 0 0 Z " fill="#E8832B" transform="translate(223,557)"/>
<path d="M0 0 C0.33 0 0.66 0 1 0 C1 2.31 1 4.62 1 7 C-0.65 6.67 -2.3 6.34 -4 6 C-2.84826645 3.53199953 -1.95216435 1.95216435 0 0 Z " fill="#E78126" transform="translate(177,546)"/>
</svg>
