<?xml version="1.0" encoding="UTF-8"?>
<svg version="1.1" xmlns="http://www.w3.org/2000/svg" width="512" height="506">
<path d="M0 0 C0.88107422 0.1556543 1.76214844 0.31130859 2.66992188 0.47167969 C44.13316243 7.84324942 83.05651067 25.91340519 116 52 C117.02738281 52.80179688 118.05476563 53.60359375 119.11328125 54.4296875 C134.94276543 67.28216104 150.17667351 82.36893342 162 99 C162.76957031 100.05960937 163.53914063 101.11921875 164.33203125 102.2109375 C170.01222707 110.20385359 175.14447667 118.48761473 180 127 C180.37656738 127.65983887 180.75313477 128.31967773 181.14111328 128.99951172 C201.71475028 165.46656867 211.47920493 206.51446412 211.3125 248.1875 C211.31067719 249.13499115 211.30885437 250.0824823 211.30697632 251.0586853 C211.26208621 264.9212482 210.79235669 278.38236471 208 292 C207.8443457 292.83450684 207.68869141 293.66901367 207.52832031 294.52880859 C200.42662299 332.38326506 184.7038433 368.58176332 161 399 C160.35804688 399.83273437 159.71609375 400.66546875 159.0546875 401.5234375 C145.20168664 419.17922291 129.20594633 435.82868662 111 449 C109.66403266 449.99214732 108.32809649 450.98433662 106.9921875 451.9765625 C97.11457912 459.21937627 86.87660712 465.38395994 76 471 C75.15791992 471.4419873 74.31583984 471.88397461 73.44824219 472.33935547 C50.34379051 484.36101051 25.6319519 492.471751 0 497 C-0.82693359 497.16081055 -1.65386719 497.32162109 -2.50585938 497.48730469 C-30.24833847 502.78876346 -62.31399093 502.38399007 -90 497 C-91.32161133 496.76651855 -91.32161133 496.76651855 -92.66992188 496.52832031 C-134.13316243 489.15675058 -173.05651067 471.08659481 -206 445 C-207.02738281 444.19820313 -208.05476563 443.39640625 -209.11328125 442.5703125 C-224.94276543 429.71783896 -240.17667351 414.63106658 -252 398 C-252.76957031 396.94039063 -253.53914063 395.88078125 -254.33203125 394.7890625 C-260.01222707 386.79614641 -265.14447667 378.51238527 -270 370 C-270.37656738 369.34016113 -270.75313477 368.68032227 -271.14111328 368.00048828 C-291.71475028 331.53343133 -301.47920493 290.48553588 -301.3125 248.8125 C-301.31067719 247.86500885 -301.30885437 246.9175177 -301.30697632 245.9413147 C-301.26208621 232.0787518 -300.79235669 218.61763529 -298 205 C-297.8443457 204.16549316 -297.68869141 203.33098633 -297.52832031 202.47119141 C-290.42662299 164.61673494 -274.7038433 128.41823668 -251 98 C-250.35804688 97.16726562 -249.71609375 96.33453125 -249.0546875 95.4765625 C-235.20168664 77.82077709 -219.20594633 61.17131338 -201 48 C-199.66403266 47.00785268 -198.32809649 46.01566338 -196.9921875 45.0234375 C-187.11457912 37.78062373 -176.87660712 31.61604006 -166 26 C-165.15791992 25.5580127 -164.31583984 25.11602539 -163.44824219 24.66064453 C-140.34379051 12.63898949 -115.6319519 4.528249 -90 0 C-89.17306641 -0.16081055 -88.34613281 -0.32162109 -87.49414062 -0.48730469 C-59.75166153 -5.78876346 -27.68600907 -5.38399007 0 0 Z " fill="#FCFBFB" transform="translate(301,5)"/>
<path d="M0 0 C0.88107422 0.1556543 1.76214844 0.31130859 2.66992188 0.47167969 C44.13316243 7.84324942 83.05651067 25.91340519 116 52 C117.02738281 52.80179688 118.05476563 53.60359375 119.11328125 54.4296875 C134.94276543 67.28216104 150.17667351 82.36893342 162 99 C162.76957031 100.05960937 163.53914063 101.11921875 164.33203125 102.2109375 C172.03156517 113.04537535 178.71752384 124.45729385 185.0625 136.125 C185.45695312 136.8355957 185.85140625 137.54619141 186.2578125 138.27832031 C186.61746094 138.95217773 186.97710937 139.62603516 187.34765625 140.3203125 C187.66742432 140.91086426 187.98719238 141.50141602 188.31665039 142.10986328 C189.17233537 144.47667754 189.11358495 146.50327919 189 149 C188.13012451 149.21092285 187.26024902 149.4218457 186.36401367 149.63916016 C163.22463909 155.21572345 163.22463909 155.21572345 140.47070312 162.16210938 C137.63789929 163.12279937 134.7954553 164.05226046 131.953125 164.984375 C92.2444703 178.17781874 54.71673154 197.20268849 21 222 C20.3292041 222.48678223 19.6584082 222.97356445 18.96728516 223.47509766 C-3.45696313 239.75292438 -26.31407688 258.94644375 -43.6328125 280.70703125 C-45 282 -45 282 -48 282 C-49.4375 280.671875 -49.4375 280.671875 -51 278.75 C-60.52917289 267.3952382 -70.68773171 256.38519828 -81.97265625 246.75390625 C-83.37841577 245.53774821 -84.75994733 244.29323499 -86.12109375 243.02734375 C-93.95576284 235.74757534 -102.43402058 229.38206046 -111 223 C-111.72251953 222.45794922 -112.44503906 221.91589844 -113.18945312 221.35742188 C-160.69939101 185.82118571 -216.46662971 161.38191418 -274.02416992 147.50561523 C-275.70295103 147.07601488 -277.3560486 146.5479838 -279 146 C-277.50581854 140.99331867 -275.38998533 136.58474002 -272.9375 132 C-272.54119385 131.25669434 -272.1448877 130.51338867 -271.73657227 129.74755859 C-254.76883427 98.37148079 -229.94411834 68.93997457 -201 48 C-199.66403266 47.00785268 -198.32809649 46.01566338 -196.9921875 45.0234375 C-187.11457912 37.78062373 -176.87660712 31.61604006 -166 26 C-165.15791992 25.5580127 -164.31583984 25.11602539 -163.44824219 24.66064453 C-140.34379051 12.63898949 -115.6319519 4.528249 -90 0 C-89.17306641 -0.16081055 -88.34613281 -0.32162109 -87.49414062 -0.48730469 C-59.75166153 -5.78876346 -27.68600907 -5.38399007 0 0 Z " fill="#D9241B" transform="translate(301,5)"/>
<path d="M0 0 C0.48287851 2.64520242 0.96136624 5.2910821 1.4375 7.9375 C1.57220703 8.67291016 1.70691406 9.40832031 1.84570312 10.16601562 C1.97783203 10.90400391 2.10996094 11.64199219 2.24609375 12.40234375 C2.42676392 13.39995728 2.42676392 13.39995728 2.61108398 14.41772461 C3.67172665 21.46004568 4.16515786 28.39207564 4.203125 35.51171875 C4.21013931 36.39421295 4.21715363 37.27670715 4.22438049 38.1859436 C4.24179764 41.01984817 4.24823318 43.85354387 4.25 46.6875 C4.25067474 47.65497162 4.25134949 48.62244324 4.25204468 49.61923218 C4.23648253 63.64043191 3.82465957 77.22483154 1 91 C0.8443457 91.83450684 0.68869141 92.66901367 0.52832031 93.52880859 C-5.08671167 123.45883436 -16.19611806 151.86277136 -31.9375 177.875 C-32.48124268 178.78000244 -33.02498535 179.68500488 -33.58520508 180.61743164 C-34.36093872 181.85481079 -34.36093872 181.85481079 -35.15234375 183.1171875 C-35.60601318 183.84534668 -36.05968262 184.57350586 -36.52709961 185.32373047 C-38 187 -38 187 -39.87548828 187.87646484 C-42.74765678 188.04347441 -44.29233547 187.18469369 -46.83984375 185.859375 C-47.80535156 185.37114258 -48.77085937 184.88291016 -49.765625 184.37988281 C-50.81234375 183.84202148 -51.8590625 183.30416016 -52.9375 182.75 C-66.93291183 175.80561775 -81.27131849 170.20323583 -96 165 C-97.03527832 164.63422852 -98.07055664 164.26845703 -99.13720703 163.89160156 C-139.5537859 149.84111797 -182.29791097 141.39333242 -225 139 C-222.45873815 121.27893406 -206.93664352 104.35966787 -195 92 C-194.44940918 91.42894531 -193.89881836 90.85789062 -193.33154297 90.26953125 C-185.62386756 82.3137503 -177.83938512 74.70727213 -169 68 C-168.33548828 67.49146484 -167.67097656 66.98292969 -166.98632812 66.45898438 C-149.90204774 53.43165712 -131.99027 42.03851441 -113 32 C-112.10716309 31.525625 -111.21432617 31.05125 -110.29443359 30.5625 C-88.86843919 19.26669516 -66.48227591 10.06365613 -43 4 C-42.19965332 3.79117188 -41.39930664 3.58234375 -40.57470703 3.3671875 C-27.00383447 -0.05736489 -13.95034616 -0.49361595 0 0 Z " fill="#0B0C0E" transform="translate(508,206)"/>
<path d="M0 0 C29.15914992 -1.26778913 56.0244831 8.42486323 82 21 C82.70560059 21.3403125 83.41120117 21.680625 84.13818359 22.03125 C88.12800956 23.96708596 92.08828606 25.95494739 96.03027344 27.98632812 C97.36202185 28.67168006 98.69608155 29.35255644 100.03222656 30.02929688 C126.16473799 43.27437346 151.19336015 60.0966534 172.77734375 79.9609375 C174.79562103 81.81250295 176.85349135 83.59833 178.9375 85.375 C187.84512479 93.1691717 195.72848593 101.66952675 203 111 C204.10988281 112.38445312 204.10988281 112.38445312 205.2421875 113.796875 C209.65200935 119.44266769 213.46145499 125.21593701 217 131.4375 C217.38607422 132.11192139 217.77214844 132.78634277 218.16992188 133.48120117 C220.09237808 136.95631018 221.51172837 140.04042227 222 144 C220.72253906 144.02578125 219.44507813 144.0515625 218.12890625 144.078125 C156.93838014 145.77849371 98.79566159 162.76895105 43 187 C41.54342176 187.62605504 40.08649741 188.25130691 38.62890625 188.875 C37.76136719 189.24625 36.89382812 189.6175 36 190 C10.08487071 146.85981149 -5.5008118 102.57701522 -5.3125 51.8125 C-5.31167419 50.86966156 -5.31084839 49.92682312 -5.30999756 48.95541382 C-5.27623999 32.20828341 -4.23522538 16.25958265 0 0 Z " fill="#0A0B0D" transform="translate(5,202)"/>
<path d="M0 0 C1.45483292 0.00273422 1.45483292 0.00273422 2.9390564 0.00552368 C17.28477012 0.05089859 31.26271642 0.53288996 45.375 3.3125 C46.29861328 3.48410645 47.22222656 3.65571289 48.17382812 3.83251953 C59.17227323 5.90166211 69.97137831 8.58667034 80.6875 11.8125 C81.63117432 12.08481445 82.57484863 12.35712891 83.54711914 12.63769531 C84.84830688 13.04906738 84.84830688 13.04906738 86.17578125 13.46875 C86.94059814 13.70400391 87.70541504 13.93925781 88.4934082 14.18164062 C91.25971795 15.84422616 91.54901428 17.19114613 92.375 20.3125 C92.80993863 23.52351958 93.02698353 26.7355052 93.2265625 29.96875 C93.29032074 30.90746948 93.35407898 31.84618896 93.41976929 32.81335449 C93.55297639 34.80011512 93.68216663 36.78714859 93.80761719 38.77441406 C93.99761299 41.77480467 94.20082726 44.77406794 94.40625 47.7734375 C95.06431185 57.63266914 95.60778942 67.42717953 95.375 77.3125 C93.51875 77.869375 93.51875 77.869375 91.625 78.4375 C72.48390085 84.89799658 59.2618005 97.07200223 50.1875 114.875 C37.1379655 141.87089957 31.97411135 171.72431581 30.71557617 201.47900391 C30.56243734 204.94461077 30.22172425 207.92560299 29.375 211.3125 C23.435 211.3125 17.495 211.3125 11.375 211.3125 C11.27568655 192.2222475 11.30575107 173.14739253 11.8125 154.0625 C11.8419722 152.90642242 11.8419722 152.90642242 11.87203979 151.72698975 C12.15352776 140.90424801 12.69538332 130.1178341 13.375 119.3125 C6.775 119.3125 0.175 119.3125 -6.625 119.3125 C-6.625 149.6725 -6.625 180.0325 -6.625 211.3125 C-12.895 211.3125 -19.165 211.3125 -25.625 211.3125 C-25.893125 208.59 -26.16125 205.8675 -26.4375 203.0625 C-26.72456018 200.2068417 -27.01434366 197.35146958 -27.30419922 194.49609375 C-27.5222361 192.33231829 -27.7372981 190.16824143 -27.94970703 188.00390625 C-32.57965235 131.93035858 -32.57965235 131.93035858 -62.1484375 86.02734375 C-69.72630856 80.7802059 -78.78279285 78.50181073 -87.625 76.3125 C-87.84177093 65.32001469 -87.26789495 54.48551014 -86.39819336 43.53051758 C-86.185894 40.85475843 -85.98191854 38.17846096 -85.77929688 35.50195312 C-85.64630977 33.77340078 -85.51286282 32.04488374 -85.37890625 30.31640625 C-85.3184462 29.52980118 -85.25798615 28.74319611 -85.19569397 27.93275452 C-84.80508768 23.03730645 -84.26653271 18.18157766 -83.625 13.3125 C-72.08824451 9.73955523 -60.56468051 6.25286062 -48.6875 4 C-47.92284424 3.85336914 -47.15818848 3.70673828 -46.37036133 3.55566406 C-43.79383353 3.09342447 -41.21494906 2.69292602 -38.625 2.3125 C-36.81805664 2.04651001 -36.81805664 2.04651001 -34.97460938 1.77514648 C-23.31732646 0.176175 -11.75313902 -0.0459053 0 0 Z " fill="#FEFDFD" transform="translate(255.625,1.6875)"/>
<path d="M0 0 C31.18223103 -0.66345172 61.44090775 2.73404078 92 9 C93.07330566 9.21881836 94.14661133 9.43763672 95.25244141 9.66308594 C112.85460809 13.32323166 129.92665551 18.39752916 147 24 C147.92506348 24.30019043 148.85012695 24.60038086 149.80322266 24.90966797 C168.03312763 30.865767 185.95677327 38.20058537 203 47 C197.99447452 55.28021312 191.70011725 62.0916429 185 69 C184.29665527 69.72525879 183.59331055 70.45051758 182.86865234 71.19775391 C174.31488687 79.97297609 165.80834005 88.61133855 156 96 C140.32526643 88.70581705 140.32526643 88.70581705 133.25195312 85.08398438 C93.43863777 64.74232169 53.14946368 55.10699191 8.73461914 52.24951172 C5.80560613 51.98226314 2.90116195 51.48352699 0 51 C0 34.17 0 17.34 0 0 Z " fill="#0A0B0D" transform="translate(259,356)"/>
<path d="M0 0 C0 17.16 0 34.32 0 52 C-5.94 52.391875 -11.88 52.78375 -18 53.1875 C-67.61338089 56.77029414 -113.00826131 68.18376815 -156 94 C-163.9816737 87.71881215 -171.34615729 81.01401017 -178.5 73.8125 C-179.24904099 73.06321732 -179.24904099 73.06321732 -180.01321411 72.29879761 C-187.63328457 64.66163871 -194.75210612 56.81426593 -201 48 C-198.45738123 45.02457174 -195.6867411 43.77222238 -192.12890625 42.21484375 C-190.92935303 41.68914795 -189.7297998 41.16345215 -188.49389648 40.62182617 C-187.18392544 40.05923142 -185.87344571 39.49781985 -184.5625 38.9375 C-183.89517853 38.65065338 -183.22785706 38.36380676 -182.54031372 38.06826782 C-159.26004352 28.08863479 -135.54579346 20.24833312 -111 14 C-109.92073242 13.72172363 -108.84146484 13.44344727 -107.72949219 13.15673828 C-79.91432118 6.06819039 -51.26157509 2.09924772 -22.625 0.375 C-21.62738647 0.3145752 -21.62738647 0.3145752 -20.60961914 0.25292969 C-13.7224091 -0.10545644 -6.92598272 0 0 0 Z " fill="#0A0B0D" transform="translate(250,355)"/>
<path d="M0 0 C0 15.51 0 31.02 0 47 C-3.795 47.4125 -7.59 47.825 -11.5 48.25 C-33.77229793 50.87560195 -52.81306248 56.62251256 -70.89990234 70.2265625 C-74.29782448 72.68406549 -76.15220168 73.98066594 -80.42578125 74.078125 C-84.9289808 72.71978284 -89.19464193 71.0768345 -93.5 69.1875 C-94.85955811 68.59569946 -94.85955811 68.59569946 -96.24658203 67.99194336 C-114.17964092 60.04367551 -131.36983954 50.90326088 -147 39 C-145.33941276 34.01823827 -140.55815287 32.74872291 -136.0625 30.4375 C-135.03415039 29.90809814 -134.00580078 29.37869629 -132.94628906 28.83325195 C-91.67248012 8.06258401 -45.87993393 0 0 0 Z " fill="#090A0C" transform="translate(250,417)"/>
<path d="M0 0 C42.57766239 0 83.69066404 8.76587198 122.1875 27.0625 C123.20271729 27.54485107 124.21793457 28.02720215 125.26391602 28.52416992 C132.16245171 31.89253567 138.6071483 35.75351592 145 40 C143.82934852 43.51195445 143.12625028 43.84807266 140.08203125 45.75 C138.83619263 46.53068848 138.83619263 46.53068848 137.56518555 47.32714844 C136.65679932 47.87918945 135.74841309 48.43123047 134.8125 49 C133.86995361 49.57524414 132.92740723 50.15048828 131.95629883 50.74316406 C117.82351582 59.23898294 103.27830128 66.35971622 87.875 72.25 C86.84914795 72.64541992 85.8232959 73.04083984 84.76635742 73.44824219 C83.80963135 73.80047852 82.85290527 74.15271484 81.8671875 74.515625 C81.02269043 74.82790039 80.17819336 75.14017578 79.30810547 75.46191406 C76.72325035 76.06451832 75.45726942 75.95169423 73 75 C71.41027989 73.84233646 69.82490879 72.67716146 68.28222656 71.45751953 C47.68438128 55.18314998 26.01000475 50.60100048 0 48 C0 32.16 0 16.32 0 0 Z " fill="#090A0C" transform="translate(260,417)"/>
<path d="M0 0 C6.21714592 4.8250715 10.80506143 11.70521086 12.05957031 19.56054688 C13.07491692 30.28546428 11.27485584 38.53685722 4.37109375 46.91015625 C-0.83360184 52.5040919 -6.63154716 56.53257639 -14.3984375 56.93359375 C-15.95430025 56.95734738 -17.51036431 56.9700864 -19.06640625 56.97265625 C-19.83533203 56.99714844 -20.60425781 57.02164063 -21.39648438 57.046875 C-29.46856569 57.0877463 -35.65997172 53.78517966 -41.58203125 48.43359375 C-46.11481844 43.45600034 -49.96880687 37.44004132 -50.25390625 30.59765625 C-50.34478516 29.50904297 -50.34478516 29.50904297 -50.4375 28.3984375 C-50.88800811 19.70226574 -48.5617465 11.98872264 -43.00390625 5.22265625 C-31.1917905 -7.12062531 -14.56093764 -9.05957818 0 0 Z " fill="#FEF401" transform="translate(278.25390625,17.40234375)"/>
<path d="M0 0 C16.50640947 0 16.50640947 0 23.875 1.5625 C24.7208667 1.73958496 25.5667334 1.91666992 26.43823242 2.09912109 C41.06121917 5.39022105 52.90575902 12.36373884 65 21 C61.95311261 22.68435674 59.14446665 23.52776986 55.73828125 24.21875 C54.71041504 24.42798096 53.68254883 24.63721191 52.62353516 24.8527832 C51.53089355 25.06636475 50.43825195 25.27994629 49.3125 25.5 C48.18634277 25.72067139 47.06018555 25.94134277 45.89990234 26.16870117 C30.41184323 29.13781717 15.76991289 30.23362834 0 30 C0 20.1 0 10.2 0 0 Z " fill="#0B0C0E" transform="translate(259,475)"/>
<path d="M0 0 C0 9.9 0 19.8 0 30 C-17.62968152 30.50370519 -34.58262342 28.1085961 -51.8125 24.4375 C-52.8032251 24.22778564 -53.7939502 24.01807129 -54.81469727 23.80200195 C-55.72791748 23.59792725 -56.6411377 23.39385254 -57.58203125 23.18359375 C-58.38874268 23.00368896 -59.1954541 22.82378418 -60.02661133 22.63842773 C-62 22 -62 22 -64 20 C-50.61164946 10.77458971 -37.17735325 3.80856827 -21 1 C-20.29875 0.86980469 -19.5975 0.73960937 -18.875 0.60546875 C-12.56991502 -0.37970078 -6.45256711 0 0 0 Z " fill="#090A0C" transform="translate(250,475)"/>
<path d="M0 0 C2.33285378 2.13900633 3.7868759 4.16655353 5.1875 7 C5.53167969 7.680625 5.87585938 8.36125 6.23046875 9.0625 C7 11 7 11 7 14 C4.03 14 1.06 14 -2 14 C-2 13.67 -2 13.34 -2 13 C-0.02 12.67 1.96 12.34 4 12 C3.71125 11.13375 3.4225 10.2675 3.125 9.375 C2.08333333 6.25 1.04166667 3.125 0 0 Z " fill="#373636" transform="translate(220,332)"/>
<path d="M0 0 C0.33 0.99 0.66 1.98 1 3 C-1.31 4.98 -3.62 6.96 -6 9 C-6 6 -6 6 -4.6875 4.39453125 C-4.130625 3.87246094 -3.57375 3.35039062 -3 2.8125 C-2.443125 2.28269531 -1.88625 1.75289063 -1.3125 1.20703125 C-0.6628125 0.60955078 -0.6628125 0.60955078 0 0 Z " fill="#484848" transform="translate(439,426)"/>
<path d="M0 0 C0 1.65 0 3.3 0 5 C0.99 5.33 1.98 5.66 3 6 C0.69 5.67 -1.62 5.34 -4 5 C-3.625 3.0625 -3.625 3.0625 -3 1 C-1 0 -1 0 0 0 Z " fill="#D91611" transform="translate(26,146)"/>
<path d="M0 0 C2 1 2 1 2 1 Z M-2 1 C-1.34 1.33 -0.68 1.66 0 2 C-0.99 2 -1.98 2 -3 2 C-2.67 1.67 -2.34 1.34 -2 1 Z M-3 3 C-3.66 4.32 -4.32 5.64 -5 7 C-6.32 6.67 -7.64 6.34 -9 6 C-5.25 3 -5.25 3 -3 3 Z " fill="#151515" transform="translate(195,489)"/>
<path d="M0 0 C1.98 0.495 1.98 0.495 4 1 C2.625 3 2.625 3 1 5 C0.34 5 -0.32 5 -1 5 C-0.67 3.35 -0.34 1.7 0 0 Z " fill="#D81A12" transform="translate(291,246)"/>
<path d="M0 0 C0.66 0.66 1.32 1.32 2 2 C1.625 4.125 1.625 4.125 1 6 C0.01 6 -0.98 6 -2 6 C-1.125 1.125 -1.125 1.125 0 0 Z " fill="#DF4E47" transform="translate(488,147)"/>
</svg>
