<?xml version="1.0" standalone="no"?>
<!DOCTYPE svg PUBLIC "-//W3C//DTD SVG 20010904//EN"
 "http://www.w3.org/TR/2001/REC-SVG-20010904/DTD/svg10.dtd">
<svg version="1.0" xmlns="http://www.w3.org/2000/svg"
 width="400.000000pt" height="367.000000pt" viewBox="0 0 400.000000 367.000000"
 preserveAspectRatio="xMidYMid meet">

<g transform="translate(0.000000,367.000000) scale(0.100000,-0.100000)"
fill="#000000" stroke="none">
<path d="M2075 3664 c-500 -40 -923 -232 -1265 -574 -242 -242 -399 -515 -466
-810 -128 -567 83 -1052 581 -1338 140 -81 413 -149 639 -159 431 -19 866 131
1265 437 91 69 173 143 126 112 -104 -67 -323 -168 -470 -216 -112 -36 -275
-73 -375 -86 -121 -14 -359 -12 -470 5 -386 58 -719 266 -930 581 -113 170
-175 446 -151 681 30 305 163 558 413 790 188 174 528 355 743 395 97 18 467
17 560 -1 428 -85 725 -364 807 -759 26 -128 21 -346 -11 -466 -65 -244 -232
-491 -386 -573 -121 -63 -225 -78 -302 -44 -52 24 -76 61 -76 114 0 66 132
743 229 1175 2 13 1 21 -3 19 -4 -3 -208 -235 -453 -515 -245 -280 -446 -507
-447 -503 -2 3 27 119 63 256 92 347 94 359 96 461 2 250 -130 388 -356 371
-129 -10 -284 -87 -386 -192 l-45 -46 82 54 c99 67 177 98 264 104 81 7 129
-8 180 -54 81 -73 100 -211 55 -398 -30 -120 -108 -379 -205 -682 -40 -122
-73 -241 -74 -265 -2 -38 1 -43 21 -46 31 -5 57 22 506 531 203 229 371 416
373 414 2 -2 -22 -118 -53 -258 -46 -207 -57 -271 -56 -344 0 -203 101 -321
286 -333 225 -14 537 163 726 413 122 163 188 293 236 471 24 88 27 117 28
259 1 183 -16 263 -85 413 -65 141 -181 280 -318 382 -125 92 -326 173 -507
204 -93 16 -303 27 -389 20z"/>
<path d="M3912 1820 c-6 -16 -7 -32 -3 -34 4 -3 8 0 8 7 0 7 3 22 7 35 11 33
0 27 -12 -8z"/>
<path d="M11 1384 c0 -11 3 -14 6 -6 3 7 2 16 -1 19 -3 4 -6 -2 -5 -13z"/>
<path d="M70 1205 c0 -5 5 -17 10 -25 5 -8 10 -10 10 -5 0 6 -5 17 -10 25 -5
8 -10 11 -10 5z"/>
<path d="M32 1170 c0 -14 2 -19 5 -12 2 6 2 18 0 25 -3 6 -5 1 -5 -13z"/>
<path d="M279 867 c6 -8 9 -16 6 -19 -3 -2 2 -5 10 -5 13 0 13 3 -2 19 -19 21
-31 25 -14 5z"/>
<path d="M434 706 c1 -8 5 -18 8 -22 4 -3 5 1 4 10 -1 8 -5 18 -8 22 -4 3 -5
-1 -4 -10z"/>
<path d="M3359 613 c-13 -16 -12 -17 4 -4 16 13 21 21 13 21 -2 0 -10 -8 -17
-17z"/>
<path d="M970 416 c0 -2 7 -6 15 -10 8 -3 15 -1 15 4 0 6 -7 10 -15 10 -8 0
-15 -2 -15 -4z"/>
<path d="M2418 413 c7 -3 16 -2 19 1 4 3 -2 6 -13 5 -11 0 -14 -3 -6 -6z"/>
<path d="M2158 353 c7 -3 16 -2 19 1 4 3 -2 6 -13 5 -11 0 -14 -3 -6 -6z"/>
<path d="M1388 33 c7 -3 16 -2 19 1 4 3 -2 6 -13 5 -11 0 -14 -3 -6 -6z"/>
<path d="M1483 23 c9 -2 25 -2 35 0 9 3 1 5 -18 5 -19 0 -27 -2 -17 -5z"/>
<path d="M1908 23 c12 -2 30 -2 40 0 9 3 -1 5 -23 4 -22 0 -30 -2 -17 -4z"/>
</g>
</svg>
